<svg id="Layer_1" data-name="Layer 1" xmlns="http://www.w3.org/2000/svg" viewBox="0 0 216.12 100.24"><defs><style>.cls-1{fill:#231f20;}.cls-2{fill:#fff;}.cls-3{fill:#009444;}</style></defs><title>Policy Insights Logo final-01</title><path class="cls-1" d="M149.94,13l-.4-1.21s0,0,0,0h-2.89a0,0,0,0,0,0,0L146.19,13a.12.12,0,0,1-.12.09h-.3a.1.1,0,0,1-.08,0s0-.05,0-.1l2-6.26a.12.12,0,0,1,.12-.09h.4a.12.12,0,0,1,.12.09L150.44,13s0,0,0,0,0,.08-.11.08h-.28A.12.12,0,0,1,149.94,13Zm-3.21-1.66h2.66a0,0,0,0,0,0,0l-1.31-4.06,0,0,0,0-1.3,4.06A0,0,0,0,0,146.73,11.34Z"/><path class="cls-1" d="M157.06,10.75c0,.28,0,.51,0,.69a3.25,3.25,0,0,1-.07.48,1.67,1.67,0,0,1-.59.91,1.78,1.78,0,0,1-1.08.34,1.7,1.7,0,0,1-.73-.16,1.38,1.38,0,0,1-.52-.47s0,0,0,0,0,0,0,0V14.8a.13.13,0,0,1,0,.08.11.11,0,0,1-.08,0h-.27a.1.1,0,0,1-.11-.11V8.54a.11.11,0,0,1,0-.08.13.13,0,0,1,.08,0h.27a.1.1,0,0,1,.11.11V9s0,0,0,0,0,0,0,0a1.38,1.38,0,0,1,.52-.47,1.57,1.57,0,0,1,.73-.17,1.64,1.64,0,0,1,1.06.34,1.69,1.69,0,0,1,.6.89A5.48,5.48,0,0,1,157.06,10.75Zm-.53.72a4.07,4.07,0,0,0,0-.71,5.43,5.43,0,0,0,0-.68,2.59,2.59,0,0,0-.09-.42A1.11,1.11,0,0,0,156,9a1.27,1.27,0,0,0-.78-.24,1.08,1.08,0,0,0-.72.24,1.17,1.17,0,0,0-.4.63,2,2,0,0,0-.09.39c0,.15,0,.38,0,.7a6.09,6.09,0,0,0,0,.72,2.26,2.26,0,0,0,.09.41,1.11,1.11,0,0,0,.39.62,1.17,1.17,0,0,0,.72.23,1.26,1.26,0,0,0,.75-.23,1.2,1.2,0,0,0,.43-.61A1.85,1.85,0,0,0,156.53,11.47Z"/><path class="cls-1" d="M161.39,8.46a.1.1,0,0,1,.08,0h.25a.1.1,0,0,1,.08,0,.09.09,0,0,1,0,.08V13a.09.09,0,0,1,0,.08.1.1,0,0,1-.08,0h-.25a.1.1,0,0,1-.08,0,.12.12,0,0,1,0-.08v-.43s0,0,0,0a0,0,0,0,0,0,0,1.28,1.28,0,0,1-.52.46,1.73,1.73,0,0,1-.78.16,1.66,1.66,0,0,1-1.14-.41,1.43,1.43,0,0,1-.45-1.12V8.54a.1.1,0,0,1,.11-.11h.26a.1.1,0,0,1,.11.11v3a1.21,1.21,0,0,0,.33.89,1.18,1.18,0,0,0,.87.33,1.22,1.22,0,0,0,.91-.34,1.17,1.17,0,0,0,.34-.88v-3A.12.12,0,0,1,161.39,8.46Z"/><path class="cls-1" d="M167,10.08c0,.18,0,.41,0,.69a4.89,4.89,0,0,1-.1,1.17,1.62,1.62,0,0,1-.59.89,1.67,1.67,0,0,1-1.07.34,1.53,1.53,0,0,1-.72-.17,1.49,1.49,0,0,1-.53-.47l0,0s0,0,0,0V13a.11.11,0,0,1,0,.08.13.13,0,0,1-.08,0h-.27a.1.1,0,0,1-.11-.11V6.72a.1.1,0,0,1,.11-.11h.27a.13.13,0,0,1,.08,0,.11.11,0,0,1,0,.08V9s0,0,0,0,0,0,0,0a1.49,1.49,0,0,1,.53-.47,1.66,1.66,0,0,1,.72-.16,1.68,1.68,0,0,1,1.08.34,1.62,1.62,0,0,1,.59.91A3,3,0,0,1,167,10.08Zm-.5,1.36c0-.14,0-.37,0-.68a5.78,5.78,0,0,0,0-.71,1.85,1.85,0,0,0-.11-.42,1.2,1.2,0,0,0-.43-.61,1.26,1.26,0,0,0-.75-.23,1.13,1.13,0,0,0-.72.23,1.11,1.11,0,0,0-.39.62,1.3,1.3,0,0,0-.09.41,6.09,6.09,0,0,0,0,.72c0,.31,0,.55,0,.69a2.15,2.15,0,0,0,.09.4,1.21,1.21,0,0,0,.39.63,1.13,1.13,0,0,0,.73.24,1.29,1.29,0,0,0,.78-.24,1.14,1.14,0,0,0,.42-.63A1.84,1.84,0,0,0,166.48,11.44Z"/><path class="cls-1" d="M168.46,13.06a.11.11,0,0,1,0-.08V6.72a.1.1,0,0,1,.11-.11h.27a.1.1,0,0,1,.11.11V13a.1.1,0,0,1-.11.11h-.27A.11.11,0,0,1,168.46,13.06Z"/><path class="cls-1" d="M170.54,7.37a.37.37,0,0,1-.12-.29.36.36,0,0,1,.12-.28.41.41,0,0,1,.31-.12.41.41,0,0,1,.3.12.36.36,0,0,1,.12.28.37.37,0,0,1-.12.29.41.41,0,0,1-.3.12A.41.41,0,0,1,170.54,7.37Zm.1,5.69a.11.11,0,0,1,0-.08V8.54a.1.1,0,0,1,.11-.11H171a.12.12,0,0,1,.11.11V13a.12.12,0,0,1-.11.11h-.27A.11.11,0,0,1,170.64,13.06Z"/><path class="cls-1" d="M173.35,12.82a1.62,1.62,0,0,1-.61-.91,4.58,4.58,0,0,1-.12-1.16,4.66,4.66,0,0,1,.12-1.15,1.58,1.58,0,0,1,.61-.91,2,2,0,0,1,2.25,0,1.51,1.51,0,0,1,.66,1.07v0c0,.05,0,.09-.1.1l-.26,0h0s-.09,0-.11-.11a.28.28,0,0,0,0-.11,1.08,1.08,0,0,0-.43-.65,1.36,1.36,0,0,0-.85-.26,1.31,1.31,0,0,0-.85.27,1.12,1.12,0,0,0-.43.71,4.25,4.25,0,0,0-.08,1,4.1,4.1,0,0,0,.08,1,1.17,1.17,0,0,0,.43.72,1.31,1.31,0,0,0,.85.27,1.41,1.41,0,0,0,.85-.26,1,1,0,0,0,.43-.66v0a.13.13,0,0,1,.05-.07.08.08,0,0,1,.08,0l.25,0a.14.14,0,0,1,.08,0,.11.11,0,0,1,0,.08l0,.15a1.44,1.44,0,0,1-.61.85,1.93,1.93,0,0,1-1.13.33A1.82,1.82,0,0,1,173.35,12.82Z"/><path class="cls-1" d="M180.34,8.77a1.54,1.54,0,0,1,.42,1.14V13a.1.1,0,0,1-.11.11h-.27a.12.12,0,0,1-.11-.11v-.4s0,0,0,0,0,0,0,0a1.56,1.56,0,0,1-.64.44,2.22,2.22,0,0,1-.85.16,1.81,1.81,0,0,1-1.09-.32,1.17,1.17,0,0,1-.43-1,1.3,1.3,0,0,1,.51-1.08,2.18,2.18,0,0,1,1.4-.4h1.11s0,0,0,0V9.92a1.14,1.14,0,0,0-.28-.83,1.19,1.19,0,0,0-.9-.3,1.41,1.41,0,0,0-.78.19.78.78,0,0,0-.38.51c0,.07-.06.11-.13.09l-.29,0c-.08,0-.11-.05-.1-.11a1.21,1.21,0,0,1,.55-.79,2,2,0,0,1,1.14-.3A1.71,1.71,0,0,1,180.34,8.77Zm-.5,3.68a.89.89,0,0,0,.43-.79v-.84s0,0,0,0h-1.06a1.83,1.83,0,0,0-1.07.28.87.87,0,0,0-.4.76.79.79,0,0,0,.31.69,1.36,1.36,0,0,0,.81.23A1.69,1.69,0,0,0,179.84,12.45Z"/><path class="cls-1" d="M184.12,8.81a.11.11,0,0,1-.08,0H183s0,0,0,0V11.8a.87.87,0,0,0,.21.66,1,1,0,0,0,.69.19H184a.1.1,0,0,1,.11.11V13c0,.08,0,.11-.11.11h-.26a1.58,1.58,0,0,1-1-.25,1.1,1.1,0,0,1-.34-.91v-3s0,0,0,0h-.54a.12.12,0,0,1-.11-.11V8.54a.12.12,0,0,1,.11-.11h.54a0,0,0,0,0,0,0v-1a.1.1,0,0,1,.11-.11h.26a.1.1,0,0,1,.11.11v1a0,0,0,0,0,0,0H184a.1.1,0,0,1,.11.11v.19A.11.11,0,0,1,184.12,8.81Z"/><path class="cls-1" d="M185.54,7.37a.37.37,0,0,1-.12-.29.36.36,0,0,1,.12-.28.41.41,0,0,1,.31-.12.41.41,0,0,1,.3.12.36.36,0,0,1,.12.28.37.37,0,0,1-.12.29.41.41,0,0,1-.3.12A.41.41,0,0,1,185.54,7.37Zm.1,5.69a.11.11,0,0,1,0-.08V8.54a.1.1,0,0,1,.11-.11H186a.13.13,0,0,1,.08,0,.11.11,0,0,1,0,.08V13a.11.11,0,0,1,0,.08.13.13,0,0,1-.08,0h-.27A.11.11,0,0,1,185.64,13.06Z"/><path class="cls-1" d="M188.35,12.82a1.68,1.68,0,0,1-.62-.91,4.16,4.16,0,0,1-.11-1.16,4.92,4.92,0,0,1,.1-1.15,1.68,1.68,0,0,1,.63-.91,1.82,1.82,0,0,1,1.12-.34,1.93,1.93,0,0,1,1.12.34,1.7,1.7,0,0,1,.62.91,4.65,4.65,0,0,1,.1,1.15,4.69,4.69,0,0,1-.1,1.16,1.63,1.63,0,0,1-.62.91,1.87,1.87,0,0,1-1.12.35A1.82,1.82,0,0,1,188.35,12.82Zm2-.36a1.24,1.24,0,0,0,.45-.72,6.64,6.64,0,0,0,.05-1,6.44,6.44,0,0,0-.05-1,1.21,1.21,0,0,0-.45-.72,1.35,1.35,0,0,0-.85-.27,1.32,1.32,0,0,0-.84.27,1.21,1.21,0,0,0-.45.72,6.44,6.44,0,0,0,0,1,6.44,6.44,0,0,0,0,1,1.24,1.24,0,0,0,.45.72,1.46,1.46,0,0,0,1.69,0Z"/><path class="cls-1" d="M195.76,8.8a1.54,1.54,0,0,1,.43,1.14v3a.1.1,0,0,1-.11.11h-.27a.13.13,0,0,1-.08,0,.11.11,0,0,1,0-.08V10a1.25,1.25,0,0,0-.33-.9,1.14,1.14,0,0,0-.86-.34,1.26,1.26,0,0,0-.91.33,1.19,1.19,0,0,0-.34.89v3a.12.12,0,0,1-.11.11h-.27a.1.1,0,0,1-.11-.11V8.54a.1.1,0,0,1,.11-.11h.27a.12.12,0,0,1,.11.11V9s0,0,0,0,0,0,0,0a1.4,1.4,0,0,1,.55-.47,1.86,1.86,0,0,1,.77-.16A1.57,1.57,0,0,1,195.76,8.8Z"/><path class="cls-1" d="M200.17,12.82a1.65,1.65,0,0,1-.63-.91,4.58,4.58,0,0,1-.11-1.16,5.54,5.54,0,0,1,.1-1.15,1.79,1.79,0,0,1,.63-.91,1.84,1.84,0,0,1,1.12-.34,1.88,1.88,0,0,1,1.12.34,1.72,1.72,0,0,1,.63.91,5.2,5.2,0,0,1,.1,1.15,5.24,5.24,0,0,1-.1,1.16,1.65,1.65,0,0,1-.63.91,1.82,1.82,0,0,1-1.12.35A1.79,1.79,0,0,1,200.17,12.82Zm2-.36a1.24,1.24,0,0,0,.45-.72,5.17,5.17,0,0,0,.06-1,5,5,0,0,0-.06-1,1.21,1.21,0,0,0-.45-.72,1.46,1.46,0,0,0-1.69,0,1.2,1.2,0,0,0-.44.72,5,5,0,0,0-.06,1,5,5,0,0,0,.06,1,1.23,1.23,0,0,0,.44.72,1.35,1.35,0,0,0,.85.27A1.32,1.32,0,0,0,202.12,12.46Z"/><path class="cls-1" d="M205.5,7.31a1.4,1.4,0,0,0-.2.84v.24a0,0,0,0,0,0,0h1.07a.13.13,0,0,1,.08,0,.11.11,0,0,1,0,.08v.23a.11.11,0,0,1,0,.08.13.13,0,0,1-.08,0h-1.07a0,0,0,0,0,0,0V13a.1.1,0,0,1-.11.11h-.26a.1.1,0,0,1-.08,0,.09.09,0,0,1,0-.08V8.92s0,0,0,0h-.6a.12.12,0,0,1-.11-.11V8.54a.12.12,0,0,1,.11-.11h.6s0,0,0,0V8.13a2.57,2.57,0,0,1,.13-.87.88.88,0,0,1,.42-.49,1.84,1.84,0,0,1,.85-.16h.22a.1.1,0,0,1,.08,0,.12.12,0,0,1,0,.08v.21a.1.1,0,0,1,0,.08.08.08,0,0,1-.08,0h-.18A.88.88,0,0,0,205.5,7.31Z"/><path class="cls-1" d="M50.31,18a1.8,1.8,0,0,1,.69.68,2.13,2.13,0,0,1,.24,1,1.93,1.93,0,0,1-.25,1,1.7,1.7,0,0,1-.71.67,2.24,2.24,0,0,1-1.06.24H47.75s-.06,0-.06.05v2.45c0,.1,0,.15-.14.15h-.78a.13.13,0,0,1-.15-.15v-6.2a.13.13,0,0,1,.15-.15h2.51A2.15,2.15,0,0,1,50.31,18Zm-.43,2.46a1,1,0,0,0,.29-.73,1,1,0,0,0-1.05-1H47.75a.05.05,0,0,0-.06.06v1.93a.05.05,0,0,0,.06.06h1.37A1.06,1.06,0,0,0,49.88,20.41Z"/><path class="cls-1" d="M52.61,23.91a1.94,1.94,0,0,1-.73-1,3.31,3.31,0,0,1-.16-1.05,3.43,3.43,0,0,1,.15-1.06,1.91,1.91,0,0,1,.74-1,2.21,2.21,0,0,1,1.27-.36,2.07,2.07,0,0,1,1.22.36,1.9,1.9,0,0,1,.72,1A2.84,2.84,0,0,1,56,21.82a3.17,3.17,0,0,1-.16,1.05,1.94,1.94,0,0,1-.73,1,2,2,0,0,1-1.23.38A2.11,2.11,0,0,1,52.61,23.91Zm1.85-.75a1.07,1.07,0,0,0,.35-.55,2.69,2.69,0,0,0,.1-.78,2.86,2.86,0,0,0-.09-.77.94.94,0,0,0-1-.73.92.92,0,0,0-1,.73,3.38,3.38,0,0,0,0,1.55,1,1,0,0,0,.36.55,1,1,0,0,0,.61.19A.91.91,0,0,0,54.46,23.16Z"/><path class="cls-1" d="M57,24.06V17.87a.13.13,0,0,1,.15-.15H58c.09,0,.14.05.14.15v6.19c0,.1-.05.15-.14.15h-.78A.13.13,0,0,1,57,24.06Z"/><path class="cls-1" d="M59.37,18.69a.66.66,0,0,1-.19-.49.65.65,0,0,1,.19-.48.71.71,0,0,1,.5-.18.7.7,0,0,1,.5.18.71.71,0,0,1,0,1,.66.66,0,0,1-.5.19A.68.68,0,0,1,59.37,18.69Zm0,5.37V19.62a.13.13,0,0,1,.15-.15h.78a.13.13,0,0,1,.15.15v4.44a.13.13,0,0,1-.15.15h-.78A.13.13,0,0,1,59.33,24.06Z"/><path class="cls-1" d="M62.88,24.28l-.52-.37a1.93,1.93,0,0,1-.72-1,4.15,4.15,0,0,1,0-2.21,1.78,1.78,0,0,1,.72-1,2.12,2.12,0,0,1,1.23-.36,2.17,2.17,0,0,1,1.26.36,1.52,1.52,0,0,1,.77,1.17v0a.12.12,0,0,1-.12.13l-.77.12h0c-.07,0-.11,0-.13-.11l0-.12a.79.79,0,0,0-.33-.47,1,1,0,0,0-.62-.18,1,1,0,0,0-.59.18.8.8,0,0,0-.33.49,3,3,0,0,0-.09.83,3.15,3.15,0,0,0,.08.82.91.91,0,0,0,.93.7,1,1,0,0,0,.61-.18.82.82,0,0,0,.33-.47v-.05s0-.06.06-.09a.12.12,0,0,1,.11,0l.77.12c.08,0,.12.06.12.13a1.49,1.49,0,0,1,0,.22,1.65,1.65,0,0,1-.72.94,2.25,2.25,0,0,1-1.26.35Z"/><path class="cls-1" d="M66.29,25.9v-.59q0-.15.06-.15h.06a1.86,1.86,0,0,0,.59-.07.69.69,0,0,0,.35-.26,2,2,0,0,0,.24-.59s0,0,0-.07l-1.5-4.53a.15.15,0,0,1,0-.07c0-.06,0-.1.13-.1H67a.16.16,0,0,1,.17.12l.9,3.07s0,0,0,0,0,0,0,0l.88-3.07a.15.15,0,0,1,.16-.12h.84a.16.16,0,0,1,.11,0,.14.14,0,0,1,0,.13l-1.62,4.82a4.67,4.67,0,0,1-.46,1,1.21,1.21,0,0,1-.6.46,3.43,3.43,0,0,1-1.09.14h-.07S66.29,26,66.29,25.9Z"/><path class="cls-1" d="M76.42,24.09l-1.21-2.64s0,0-.07,0H74.06s-.06,0-.06.05v2.6a.13.13,0,0,1-.15.15h-.77a.13.13,0,0,1-.15-.15v-6.2a.13.13,0,0,1,.15-.15h2.51a2.05,2.05,0,0,1,1,.24,1.66,1.66,0,0,1,.67.67,2,2,0,0,1,.24,1,1.79,1.79,0,0,1-.33,1.09,1.62,1.62,0,0,1-.9.62s0,0,0,0a.06.06,0,0,0,0,0L77.52,24l0,.07c0,.07,0,.11-.13.11H76.6A.17.17,0,0,1,76.42,24.09ZM74,18.7v1.82a.05.05,0,0,0,.06.06h1.38a1,1,0,0,0,.72-.27.9.9,0,0,0,.27-.69,1,1,0,0,0-.27-.71,1,1,0,0,0-.72-.27H74.06A.05.05,0,0,0,74,18.7Z"/><path class="cls-1" d="M81.17,23.23a1.12,1.12,0,0,0,.41-.37.13.13,0,0,1,.12-.07.11.11,0,0,1,.08,0l.45.35a.17.17,0,0,1,.06.12.16.16,0,0,1,0,.08,1.82,1.82,0,0,1-.73.67,2.27,2.27,0,0,1-1.06.24,2.1,2.1,0,0,1-1.23-.35,1.93,1.93,0,0,1-.72-1,3.41,3.41,0,0,1-.18-1.14,3.62,3.62,0,0,1,.1-1,1.92,1.92,0,0,1,.69-1,2.05,2.05,0,0,1,1.26-.39,1.92,1.92,0,0,1,2,1.9c0,.2,0,.45.07.76,0,.1,0,.14-.15.14H79.47a.05.05,0,0,0-.06.06,1.18,1.18,0,0,0,.06.41.88.88,0,0,0,.39.52,1.29,1.29,0,0,0,.71.18A1.27,1.27,0,0,0,81.17,23.23ZM79.8,20.5a.87.87,0,0,0-.31.47,1.78,1.78,0,0,0-.07.39s0,.06,0,.06h1.86s0,0,0-.06a3,3,0,0,0,0-.33,1,1,0,0,0-.33-.52,1,1,0,0,0-.62-.18A.93.93,0,0,0,79.8,20.5Z"/><path class="cls-1" d="M84.21,24.09a1.56,1.56,0,0,1-.68-.47,1.06,1.06,0,0,1-.24-.67V22.9a.13.13,0,0,1,.15-.15h.74c.1,0,.15,0,.15.07v.06a.46.46,0,0,0,.25.4,1.23,1.23,0,0,0,1.25,0,.45.45,0,0,0,.23-.38.34.34,0,0,0-.19-.32,3.06,3.06,0,0,0-.62-.23l-.35-.11a4.38,4.38,0,0,1-.79-.3,1.45,1.45,0,0,1-.55-.43,1,1,0,0,1-.22-.7,1.25,1.25,0,0,1,.5-1,2.2,2.2,0,0,1,1.34-.38,2.5,2.5,0,0,1,1,.18,1.55,1.55,0,0,1,.66.5,1.16,1.16,0,0,1,.24.73.08.08,0,0,1,0,.07.15.15,0,0,1-.11,0h-.71q-.15,0-.15-.06v-.05a.48.48,0,0,0-.24-.41,1.08,1.08,0,0,0-.64-.16,1.26,1.26,0,0,0-.59.13.43.43,0,0,0-.23.38.38.38,0,0,0,.22.34,4.13,4.13,0,0,0,.71.25l.21.06a8.78,8.78,0,0,1,.84.29,1.48,1.48,0,0,1,.56.43,1,1,0,0,1,.23.71,1.22,1.22,0,0,1-.51,1,2.32,2.32,0,0,1-1.38.37A3,3,0,0,1,84.21,24.09Z"/><path class="cls-1" d="M90.76,23.23a1,1,0,0,0,.41-.37.13.13,0,0,1,.12-.07.11.11,0,0,1,.08,0l.45.35a.17.17,0,0,1,.06.12.31.31,0,0,1,0,.08,1.84,1.84,0,0,1-.74.67,2.24,2.24,0,0,1-1.06.24,2.1,2.1,0,0,1-1.23-.35,1.86,1.86,0,0,1-.71-1,3.17,3.17,0,0,1-.19-1.14,3.62,3.62,0,0,1,.1-1,1.89,1.89,0,0,1,.7-1A2,2,0,0,1,90,19.4a1.91,1.91,0,0,1,2,1.9,6.4,6.4,0,0,1,.07.76c0,.1,0,.14-.15.14H89.06a.05.05,0,0,0-.06.06,1.18,1.18,0,0,0,.06.41,1,1,0,0,0,.39.52,1.31,1.31,0,0,0,.71.18A1.27,1.27,0,0,0,90.76,23.23ZM89.4,20.5a.82.82,0,0,0-.31.47,1.36,1.36,0,0,0-.08.39s0,.06,0,.06h1.86a.05.05,0,0,0,.06-.06q0-.27-.06-.33a.87.87,0,0,0-.33-.52,1,1,0,0,0-.61-.18A.89.89,0,0,0,89.4,20.5Z"/><path class="cls-1" d="M95.9,19.6a1.69,1.69,0,0,1,.69.56,1.43,1.43,0,0,1,.24.81v3.09a.13.13,0,0,1-.15.15H95.9c-.1,0-.14-.05-.14-.15v-.23a.06.06,0,0,0,0,0l0,0a1.84,1.84,0,0,1-1.33.48,1.77,1.77,0,0,1-1.13-.35,1.29,1.29,0,0,1-.44-1.05,1.33,1.33,0,0,1,.51-1.12,2.2,2.2,0,0,1,1.42-.41h1s.06,0,.06-.05v-.22a.75.75,0,0,0-.22-.56,1,1,0,0,0-.65-.19,1.07,1.07,0,0,0-.53.11.56.56,0,0,0-.29.32.15.15,0,0,1-.17.12l-.83-.1a.23.23,0,0,1-.11,0,.07.07,0,0,1,0-.08,1.32,1.32,0,0,1,.62-.91,2.36,2.36,0,0,1,1.32-.35A2.56,2.56,0,0,1,95.9,19.6Zm-.47,3.59a.73.73,0,0,0,.33-.61v-.43a.05.05,0,0,0-.06-.06h-.77a1.45,1.45,0,0,0-.78.19.59.59,0,0,0-.28.53.54.54,0,0,0,.22.46,1,1,0,0,0,.56.16A1.27,1.27,0,0,0,95.43,23.19Z"/><path class="cls-1" d="M100.59,19.52a.15.15,0,0,1,.08.18l-.15.77a.11.11,0,0,1,0,.1h-.12a.84.84,0,0,0-.3,0h-.17a.94.94,0,0,0-.65.27.86.86,0,0,0-.26.66v2.59a.13.13,0,0,1-.15.15H98a.13.13,0,0,1-.15-.15V19.62a.13.13,0,0,1,.15-.15h.78a.13.13,0,0,1,.15.15V20s0,0,0,.05,0,0,0,0a1.23,1.23,0,0,1,1.08-.58A1.13,1.13,0,0,1,100.59,19.52Z"/><path class="cls-1" d="M102.54,24.28l-.52-.37a1.93,1.93,0,0,1-.72-1,4.15,4.15,0,0,1,0-2.21,1.78,1.78,0,0,1,.72-1,2.13,2.13,0,0,1,1.24-.36,2.22,2.22,0,0,1,1.26.36,1.75,1.75,0,0,1,.71.91,1,1,0,0,1,0,.26v0a.12.12,0,0,1-.12.13l-.77.12h0c-.07,0-.11,0-.13-.11l0-.12a.82.82,0,0,0-.32-.47,1.08,1.08,0,0,0-.62-.18,1,1,0,0,0-.6.18.85.85,0,0,0-.33.49,3,3,0,0,0-.09.83,3.15,3.15,0,0,0,.08.82.91.91,0,0,0,.33.51.93.93,0,0,0,.61.19,1,1,0,0,0,.6-.18.82.82,0,0,0,.33-.47v-.05a.24.24,0,0,1,.06-.09.13.13,0,0,1,.12,0l.76.12c.09,0,.13.06.13.13a2.19,2.19,0,0,1,0,.22,1.67,1.67,0,0,1-.71.94,2.29,2.29,0,0,1-1.26.35Z"/><path class="cls-1" d="M109.68,19.84a1.64,1.64,0,0,1,.45,1.22v3a.13.13,0,0,1-.15.15h-.78a.13.13,0,0,1-.15-.15V21.28a1,1,0,0,0-.24-.69.94.94,0,0,0-1.29,0,1,1,0,0,0-.24.69v2.79a.13.13,0,0,1-.15.15h-.78a.13.13,0,0,1-.15-.15V17.87a.13.13,0,0,1,.15-.15h.78a.13.13,0,0,1,.15.15v2s0,0,0,.05,0,0,0,0a1.37,1.37,0,0,1,1.14-.5A1.66,1.66,0,0,1,109.68,19.84Z"/><path class="cls-1" d="M113.19,24.06V17.87a.13.13,0,0,1,.15-.15h.78a.13.13,0,0,1,.15.15v6.19a.13.13,0,0,1-.15.15h-.78A.13.13,0,0,1,113.19,24.06Z"/><path class="cls-1" d="M119,19.84a1.64,1.64,0,0,1,.45,1.22v3c0,.1,0,.15-.14.15h-.78a.13.13,0,0,1-.15-.15V21.28a1,1,0,0,0-.25-.69.8.8,0,0,0-.64-.26.83.83,0,0,0-.64.25,1,1,0,0,0-.25.69v2.79a.13.13,0,0,1-.15.15h-.77a.13.13,0,0,1-.15-.15V19.62a.13.13,0,0,1,.15-.15h.77a.13.13,0,0,1,.15.15v.25a.06.06,0,0,0,0,.05l0,0a1.37,1.37,0,0,1,1.14-.5A1.66,1.66,0,0,1,119,19.84Z"/><path class="cls-1" d="M121.3,24.09a1.56,1.56,0,0,1-.68-.47,1.06,1.06,0,0,1-.24-.67V22.9a.13.13,0,0,1,.15-.15h.74c.1,0,.15,0,.15.07v.06a.46.46,0,0,0,.25.4,1.08,1.08,0,0,0,.64.18,1.13,1.13,0,0,0,.61-.16.45.45,0,0,0,.23-.38.36.36,0,0,0-.19-.32,3.06,3.06,0,0,0-.62-.23l-.35-.11a4.5,4.5,0,0,1-.8-.3,1.41,1.41,0,0,1-.54-.43,1.05,1.05,0,0,1-.23-.7,1.23,1.23,0,0,1,.51-1,2.18,2.18,0,0,1,1.34-.38,2.57,2.57,0,0,1,1,.18,1.61,1.61,0,0,1,.66.5,1.16,1.16,0,0,1,.24.73s0,.05,0,.07a.12.12,0,0,1-.1,0h-.71q-.15,0-.15-.06v-.05a.48.48,0,0,0-.24-.41,1.1,1.1,0,0,0-.64-.16,1.26,1.26,0,0,0-.59.13.43.43,0,0,0-.23.38.36.36,0,0,0,.22.34,4.13,4.13,0,0,0,.71.25l.21.06c.33.1.61.2.84.29a1.48,1.48,0,0,1,.56.43,1.1,1.1,0,0,1,.23.71,1.21,1.21,0,0,1-.52,1,2.28,2.28,0,0,1-1.38.37A2.87,2.87,0,0,1,121.3,24.09Z"/><path class="cls-1" d="M127.48,20.34h-.9s0,0,0,.06v2.18a.72.72,0,0,0,.15.52.63.63,0,0,0,.49.16h.24c.1,0,.14,0,.14.15V24a.14.14,0,0,1-.14.16H127a1.88,1.88,0,0,1-1.09-.26,1.11,1.11,0,0,1-.37-1V20.4a.05.05,0,0,0-.06-.06H125c-.1,0-.15-.05-.15-.14v-.58a.13.13,0,0,1,.15-.15h.48s.06,0,.06,0v-1a.13.13,0,0,1,.15-.15h.73a.13.13,0,0,1,.15.15v1a0,0,0,0,0,0,0h.9a.13.13,0,0,1,.15.15v.58C127.63,20.29,127.58,20.34,127.48,20.34Z"/><path class="cls-1" d="M128.69,18.69a.66.66,0,0,1-.19-.49.65.65,0,0,1,.19-.48.71.71,0,0,1,.5-.18.7.7,0,0,1,.5.18.65.65,0,0,1,.19.48.66.66,0,0,1-.19.49.66.66,0,0,1-.5.19A.68.68,0,0,1,128.69,18.69Zm0,5.37V19.62a.13.13,0,0,1,.15-.15h.77a.13.13,0,0,1,.15.15v4.44a.13.13,0,0,1-.15.15h-.77A.13.13,0,0,1,128.66,24.06Z"/><path class="cls-1" d="M133.31,20.34h-.9a.05.05,0,0,0-.06.06v2.18a.67.67,0,0,0,.16.52.62.62,0,0,0,.48.16h.24a.13.13,0,0,1,.15.15V24a.14.14,0,0,1-.15.16h-.44a1.94,1.94,0,0,1-1.1-.26,1.11,1.11,0,0,1-.37-1V20.4s0-.06,0-.06h-.48c-.1,0-.15-.05-.15-.14v-.58a.13.13,0,0,1,.15-.15h.48s0,0,0,0v-1a.13.13,0,0,1,.15-.15h.73a.13.13,0,0,1,.15.15v1s0,0,.06,0h.9c.09,0,.14.05.14.15v.58A.13.13,0,0,1,133.31,20.34Z"/><path class="cls-1" d="M137.35,19.47h.77a.13.13,0,0,1,.15.15v4.44a.13.13,0,0,1-.15.15h-.77a.13.13,0,0,1-.15-.15v-.24s0,0,0-.05,0,0,0,0a1.36,1.36,0,0,1-1.13.47,1.76,1.76,0,0,1-1.18-.41,1.42,1.42,0,0,1-.48-1.15V19.62a.13.13,0,0,1,.15-.15h.78a.13.13,0,0,1,.15.15V22.4a1,1,0,0,0,.22.69.79.79,0,0,0,.64.26.85.85,0,0,0,.66-.26.93.93,0,0,0,.25-.69V19.62A.13.13,0,0,1,137.35,19.47Z"/><path class="cls-1" d="M141.78,20.34h-.9a.05.05,0,0,0-.06.06v2.18a.72.72,0,0,0,.16.52.62.62,0,0,0,.48.16h.24a.13.13,0,0,1,.15.15V24a.14.14,0,0,1-.15.16h-.44a1.88,1.88,0,0,1-1.09-.26,1.09,1.09,0,0,1-.37-1V20.4a.05.05,0,0,0-.06-.06h-.48c-.1,0-.15-.05-.15-.14v-.58a.13.13,0,0,1,.15-.15h.48s.06,0,.06,0v-1c0-.1,0-.15.14-.15h.74c.1,0,.14.05.14.15v1s0,0,.06,0h.9a.13.13,0,0,1,.15.15v.58C141.93,20.29,141.88,20.34,141.78,20.34Z"/><path class="cls-1" d="M145.51,23.23a1.12,1.12,0,0,0,.41-.37.13.13,0,0,1,.12-.07.11.11,0,0,1,.08,0l.45.35a.17.17,0,0,1,.06.12.16.16,0,0,1,0,.08,1.82,1.82,0,0,1-.73.67,2.27,2.27,0,0,1-1.06.24,2.1,2.1,0,0,1-1.23-.35,1.93,1.93,0,0,1-.72-1,3.41,3.41,0,0,1-.18-1.14,3.62,3.62,0,0,1,.1-1,1.92,1.92,0,0,1,.69-1,2.05,2.05,0,0,1,1.26-.39,1.92,1.92,0,0,1,2,1.9c0,.2.05.45.07.76,0,.1-.05.14-.15.14h-2.87a.05.05,0,0,0-.06.06,1.18,1.18,0,0,0,.06.41.92.92,0,0,0,.39.52,1.31,1.31,0,0,0,.71.18A1.27,1.27,0,0,0,145.51,23.23Zm-1.37-2.73a.87.87,0,0,0-.31.47,1.78,1.78,0,0,0-.07.39s0,.06.05.06h1.86s.05,0,.05-.06a3,3,0,0,0-.05-.33,1,1,0,0,0-.33-.52,1,1,0,0,0-.62-.18A.93.93,0,0,0,144.14,20.5Z"/><path class="cls-1" d="M150.42,23.91a1.89,1.89,0,0,1-.73-1,3.05,3.05,0,0,1-.16-1.05,3.43,3.43,0,0,1,.15-1.06,1.91,1.91,0,0,1,.74-1,2.18,2.18,0,0,1,1.27-.36,2.09,2.09,0,0,1,1.22.36,1.9,1.9,0,0,1,.72,1,3.06,3.06,0,0,1,.17,1.06,3.17,3.17,0,0,1-.16,1.05,1.94,1.94,0,0,1-.73,1,2.06,2.06,0,0,1-1.23.38A2.11,2.11,0,0,1,150.42,23.91Zm1.85-.75a1,1,0,0,0,.34-.55,2.35,2.35,0,0,0,.11-.78,2.82,2.82,0,0,0-.1-.77,1,1,0,0,0-.35-.55,1,1,0,0,0-.61-.18,1,1,0,0,0-.6.18,1,1,0,0,0-.35.55,2.48,2.48,0,0,0-.1.77,2.51,2.51,0,0,0,.1.78,1,1,0,0,0,.35.55,1,1,0,0,0,.62.19A.93.93,0,0,0,152.27,23.16Z"/><path class="cls-1" d="M157.29,19.61v.66a.13.13,0,0,1-.15.15h-.87s-.05,0-.05,0v3.59a.13.13,0,0,1-.15.15h-.78a.13.13,0,0,1-.15-.15V20.47a0,0,0,0,0,0,0h-.53a.13.13,0,0,1-.15-.15v-.66a.13.13,0,0,1,.15-.15h.53s0,0,0-.05v-.16a2.13,2.13,0,0,1,.16-.93.93.93,0,0,1,.52-.47,3,3,0,0,1,1-.13h.28a.13.13,0,0,1,.15.15v.58c0,.09-.05.14-.15.14h-.2a.77.77,0,0,0-.55.16.85.85,0,0,0-.15.57v.09s0,.05.05.05h.87A.13.13,0,0,1,157.29,19.61Z"/><path class="cls-1" d="M163.75,20.85l0,0a1.55,1.55,0,0,1,.93,1.52,1.61,1.61,0,0,1-.59,1.34,2.46,2.46,0,0,1-1.53.46h-2.3a.13.13,0,0,1-.15-.15V17.87a.13.13,0,0,1,.15-.15h2.22a2.47,2.47,0,0,1,1.56.44,1.59,1.59,0,0,1,.54,1.31,1.36,1.36,0,0,1-.83,1.35S163.75,20.83,163.75,20.85Zm-2.53-2.15v1.7s0,.05.06.05h1.24a1.17,1.17,0,0,0,.78-.23.84.84,0,0,0,.28-.65.89.89,0,0,0-.28-.68,1.17,1.17,0,0,0-.78-.24h-1.24S161.22,18.67,161.22,18.7ZM163.36,23a.9.9,0,0,0,.28-.7.87.87,0,0,0-.29-.71,1.12,1.12,0,0,0-.77-.26h-1.3a.05.05,0,0,0-.06.06v1.81a.05.05,0,0,0,.06.06h1.32A1.09,1.09,0,0,0,163.36,23Z"/><path class="cls-1" d="M168.61,19.6a1.69,1.69,0,0,1,.69.56,1.43,1.43,0,0,1,.24.81v3.09a.13.13,0,0,1-.15.15h-.78c-.09,0-.14-.05-.14-.15v-.23a.06.06,0,0,0,0,0l0,0a1.84,1.84,0,0,1-1.33.48,1.79,1.79,0,0,1-1.13-.35,1.29,1.29,0,0,1-.44-1.05,1.33,1.33,0,0,1,.51-1.12,2.2,2.2,0,0,1,1.42-.41h1s.06,0,.06-.05v-.22a.75.75,0,0,0-.22-.56,1,1,0,0,0-.65-.19,1.07,1.07,0,0,0-.53.11.6.6,0,0,0-.29.32.14.14,0,0,1-.17.12l-.83-.1a.23.23,0,0,1-.11,0,.08.08,0,0,1,0-.08,1.32,1.32,0,0,1,.62-.91,2.36,2.36,0,0,1,1.32-.35A2.56,2.56,0,0,1,168.61,19.6Zm-.47,3.59a.73.73,0,0,0,.33-.61v-.43a.05.05,0,0,0-.06-.06h-.77a1.47,1.47,0,0,0-.78.19.59.59,0,0,0-.28.53.54.54,0,0,0,.22.46,1,1,0,0,0,.56.16A1.25,1.25,0,0,0,168.14,23.19Z"/><path class="cls-1" d="M174.08,19.84a1.64,1.64,0,0,1,.45,1.22v3a.13.13,0,0,1-.15.15h-.77a.13.13,0,0,1-.15-.15V21.28a1,1,0,0,0-.25-.69.82.82,0,0,0-.64-.26.83.83,0,0,0-.64.25,1,1,0,0,0-.25.69v2.79a.13.13,0,0,1-.15.15h-.78c-.1,0-.14-.05-.14-.15V19.62c0-.1,0-.15.14-.15h.78a.13.13,0,0,1,.15.15v.25a.06.06,0,0,0,0,.05s0,0,0,0a1.33,1.33,0,0,1,1.13-.5A1.66,1.66,0,0,1,174.08,19.84Z"/><path class="cls-1" d="M178.69,19.47h.78a.13.13,0,0,1,.15.15v4.27a2,2,0,0,1-.67,1.66,2.83,2.83,0,0,1-1.74.5l-.53,0c-.09,0-.13-.06-.13-.17l0-.68a.1.1,0,0,1,0-.1.12.12,0,0,1,.12,0l.43,0a1.55,1.55,0,0,0,1-.28,1.13,1.13,0,0,0,.33-.92v-.05s0,0,0,0,0,0,0,0a1.44,1.44,0,0,1-1.07.4,2,2,0,0,1-1.1-.31,1.59,1.59,0,0,1-.69-.93,4.35,4.35,0,0,1-.12-1.12,3.9,3.9,0,0,1,.14-1.18,1.8,1.8,0,0,1,.64-.9,1.73,1.73,0,0,1,1.07-.34,1.53,1.53,0,0,1,1.13.42s0,0,0,0,0,0,0,0v-.17A.13.13,0,0,1,178.69,19.47Zm-.16,2.86c0-.11,0-.28,0-.52s0-.41,0-.51a1.59,1.59,0,0,0-.06-.3.89.89,0,0,0-.3-.49.91.91,0,0,0-.58-.18.92.92,0,0,0-.57.18,1.07,1.07,0,0,0-.33.49,2.33,2.33,0,0,0-.11.82,2.44,2.44,0,0,0,.09.8,1,1,0,0,0,.34.49,1,1,0,0,0,.59.19.85.85,0,0,0,.58-.19.86.86,0,0,0,.3-.48A2.34,2.34,0,0,0,178.53,22.33Z"/><path class="cls-1" d="M180.74,24.06V17.87c0-.1,0-.15.14-.15h.78a.13.13,0,0,1,.15.15v6.19a.13.13,0,0,1-.15.15h-.78C180.79,24.21,180.74,24.16,180.74,24.06Z"/><path class="cls-1" d="M185.82,19.6a1.76,1.76,0,0,1,.69.56,1.43,1.43,0,0,1,.24.81v3.09a.13.13,0,0,1-.15.15h-.78a.13.13,0,0,1-.15-.15v-.23s0,0,0,0l0,0a1.86,1.86,0,0,1-1.34.48,1.76,1.76,0,0,1-1.12-.35,1.29,1.29,0,0,1-.44-1.05,1.35,1.35,0,0,1,.5-1.12,2.22,2.22,0,0,1,1.42-.41h1a0,0,0,0,0,0-.05v-.22a.75.75,0,0,0-.21-.56,1,1,0,0,0-.65-.19,1.11,1.11,0,0,0-.54.11.58.58,0,0,0-.28.32.15.15,0,0,1-.17.12l-.83-.1a.23.23,0,0,1-.11,0,.07.07,0,0,1,0-.08,1.3,1.3,0,0,1,.61-.91,2.4,2.4,0,0,1,1.32-.35A2.61,2.61,0,0,1,185.82,19.6Zm-.47,3.59a.75.75,0,0,0,.32-.61v-.43s0-.06,0-.06h-.77a1.45,1.45,0,0,0-.78.19.6.6,0,0,0-.29.53.55.55,0,0,0,.23.46,1,1,0,0,0,.56.16A1.29,1.29,0,0,0,185.35,23.19Z"/><path class="cls-1" d="M190.83,17.72h.78a.13.13,0,0,1,.15.15v6.19a.13.13,0,0,1-.15.15h-.78a.13.13,0,0,1-.15-.15v-.24s0,0,0-.05,0,0,0,0a1.32,1.32,0,0,1-1.06.48,1.81,1.81,0,0,1-1.11-.35,1.94,1.94,0,0,1-.67-.95,4.27,4.27,0,0,1,0-2.28,2,2,0,0,1,.66-1,1.81,1.81,0,0,1,1.13-.34,1.37,1.37,0,0,1,1.06.45s0,0,0,0,0,0,0-.05v-2A.13.13,0,0,1,190.83,17.72Zm-.17,4.11a2.1,2.1,0,0,0-.23-1.1.77.77,0,0,0-.69-.4.83.83,0,0,0-.74.38,2.05,2.05,0,0,0-.27,1.13A2.12,2.12,0,0,0,189,22.9a.81.81,0,0,0,.78.44.79.79,0,0,0,.72-.43A2.19,2.19,0,0,0,190.66,21.83Z"/><path class="cls-1" d="M195.63,23.23a1,1,0,0,0,.41-.37.15.15,0,0,1,.12-.07.14.14,0,0,1,.09,0l.44.35a.15.15,0,0,1,.07.12.16.16,0,0,1,0,.08A1.82,1.82,0,0,1,196,24a2.31,2.31,0,0,1-1.07.24,2.09,2.09,0,0,1-1.22-.35,1.93,1.93,0,0,1-.72-1,3.17,3.17,0,0,1-.19-1.14,4.06,4.06,0,0,1,.1-1,1.89,1.89,0,0,1,.7-1,2,2,0,0,1,1.26-.39,1.93,1.93,0,0,1,2,1.9,6.7,6.7,0,0,1,.06.76c0,.1,0,.14-.15.14h-2.87s-.05,0-.05.06a1.53,1.53,0,0,0,.05.41,1,1,0,0,0,.39.52,1.31,1.31,0,0,0,.71.18A1.27,1.27,0,0,0,195.63,23.23Zm-1.36-2.73A.87.87,0,0,0,194,21a1.34,1.34,0,0,0-.07.39s0,.06,0,.06h1.86a.05.05,0,0,0,.06-.06,1.36,1.36,0,0,0-.06-.33.91.91,0,0,0-.32-.52,1,1,0,0,0-.62-.18A.89.89,0,0,0,194.27,20.5Z"/><path class="cls-1" d="M198.68,24.09a1.51,1.51,0,0,1-.68-.47,1.06,1.06,0,0,1-.24-.67V22.9c0-.1.05-.15.14-.15h.75c.09,0,.14,0,.14.07v.06a.48.48,0,0,0,.26.4,1.22,1.22,0,0,0,1.24,0,.44.44,0,0,0,.24-.38.36.36,0,0,0-.19-.32,3.32,3.32,0,0,0-.62-.23l-.35-.11a4.5,4.5,0,0,1-.8-.3,1.41,1.41,0,0,1-.54-.43,1.05,1.05,0,0,1-.23-.7,1.23,1.23,0,0,1,.51-1,2.18,2.18,0,0,1,1.34-.38,2.57,2.57,0,0,1,1,.18,1.61,1.61,0,0,1,.66.5,1.16,1.16,0,0,1,.24.73s0,.05,0,.07a.12.12,0,0,1-.1,0h-.72c-.09,0-.14,0-.14-.06v-.05a.48.48,0,0,0-.24-.41,1.1,1.1,0,0,0-.64-.16,1.26,1.26,0,0,0-.59.13.43.43,0,0,0-.23.38.37.37,0,0,0,.21.34,4.32,4.32,0,0,0,.72.25l.21.06c.33.1.61.2.83.29a1.51,1.51,0,0,1,.57.43,1.1,1.1,0,0,1,.23.71,1.21,1.21,0,0,1-.52,1,2.28,2.28,0,0,1-1.38.37A2.87,2.87,0,0,1,198.68,24.09Z"/><path class="cls-1" d="M206,19.84a1.64,1.64,0,0,1,.45,1.22v3c0,.1-.05.15-.14.15h-.78a.13.13,0,0,1-.15-.15V21.28a1,1,0,0,0-.25-.69.8.8,0,0,0-.64-.26.83.83,0,0,0-.64.25,1,1,0,0,0-.25.69v2.79a.13.13,0,0,1-.15.15h-.77a.13.13,0,0,1-.15-.15V17.87a.13.13,0,0,1,.15-.15h.77a.13.13,0,0,1,.15.15v2a.06.06,0,0,0,0,.05s0,0,0,0a1.37,1.37,0,0,1,1.14-.5A1.66,1.66,0,0,1,206,19.84Z"/><rect x="8.97" y="29.62" width="198" height="64.8"/><path class="cls-2" d="M62.41,83.3a.76.76,0,0,1-.38.21.5.5,0,0,1,.31.19.48.48,0,0,1,.12.33s0,.08,0,.12a.8.8,0,0,1-.31.52,1.09,1.09,0,0,1-.67.19h-1l.46-2.62h1a.88.88,0,0,1,.53.14.46.46,0,0,1,.18.39s0,.08,0,.13A.73.73,0,0,1,62.41,83.3ZM62,84a.29.29,0,0,0-.12-.24.49.49,0,0,0-.32-.09h-.53l-.15.83h.53a.61.61,0,0,0,.4-.11.43.43,0,0,0,.18-.3A.34.34,0,0,0,62,84Zm.14-1.12a.25.25,0,0,0-.1-.22.46.46,0,0,0-.31-.08h-.51l-.14.78h.52a.64.64,0,0,0,.36-.1.46.46,0,0,0,.17-.29A.34.34,0,0,0,62.17,82.89Z"/><path class="cls-2" d="M65.8,82.82l-.36,2H65l.08-.44a.82.82,0,0,1-.34.35.9.9,0,0,1-.46.12.69.69,0,0,1-.48-.17.64.64,0,0,1-.18-.49,1,1,0,0,1,0-.23l.21-1.18h.42L64.09,84a.77.77,0,0,0,0,.15.41.41,0,0,0,.12.32.48.48,0,0,0,.32.11.68.68,0,0,0,.44-.16.9.9,0,0,0,.23-.48v0l.19-1.1Z"/><path class="cls-2" d="M68.29,83a.64.64,0,0,1,.21.5h-.42a.3.3,0,0,0-.1-.27.49.49,0,0,0-.34-.1.4.4,0,0,0-.26.07.25.25,0,0,0,0,.35.38.38,0,0,0,.15.09l.25.08a2.14,2.14,0,0,1,.34.12.53.53,0,0,1,.23.16.46.46,0,0,1,.09.29.71.71,0,0,1,0,.14.54.54,0,0,1-.25.35.92.92,0,0,1-.53.14,1,1,0,0,1-.63-.18.61.61,0,0,1-.23-.5h.42a.28.28,0,0,0,.11.27.58.58,0,0,0,.37.11.4.4,0,0,0,.26-.08A.29.29,0,0,0,68,84.3a.21.21,0,0,0-.06-.16l-.16-.1L67.52,84l-.33-.11a.65.65,0,0,1-.21-.16.4.4,0,0,1-.09-.27.62.62,0,0,1,0-.13.56.56,0,0,1,.24-.36,1,1,0,0,1,.54-.14A.91.91,0,0,1,68.29,83Z"/><path class="cls-2" d="M70.26,82.82l-.36,2h-.42l.35-2ZM70,82.06A.32.32,0,0,1,70.2,82a.24.24,0,0,1,.17.06.18.18,0,0,1,.06.14.26.26,0,0,1-.09.21.31.31,0,0,1-.23.08.29.29,0,0,1-.17,0,.2.2,0,0,1-.06-.15A.27.27,0,0,1,70,82.06Z"/><path class="cls-2" d="M73.2,83a.64.64,0,0,1,.18.49,1,1,0,0,1,0,.23l-.2,1.19h-.43l.2-1.15a.59.59,0,0,0,0-.14.41.41,0,0,0-.12-.32.43.43,0,0,0-.32-.11.59.59,0,0,0-.43.16.85.85,0,0,0-.24.47h0l-.19,1.1h-.43l.36-2H72l-.08.45a.83.83,0,0,1,.33-.36.89.89,0,0,1,.48-.13A.66.66,0,0,1,73.2,83Z"/><path class="cls-2" d="M76.14,82.89a.63.63,0,0,1,.29.27.81.81,0,0,1,.1.39,1.54,1.54,0,0,1,0,.19c0,.07,0,.13-.05.18H74.89a.49.49,0,0,0,0,.13.46.46,0,0,0,.13.37.5.5,0,0,0,.35.12.67.67,0,0,0,.61-.39h.45a1.08,1.08,0,0,1-.41.53,1.17,1.17,0,0,1-.69.21.84.84,0,0,1-.62-.22.81.81,0,0,1-.23-.6,2.11,2.11,0,0,1,0-.25,1.29,1.29,0,0,1,.23-.55,1.22,1.22,0,0,1,.42-.36,1.26,1.26,0,0,1,.55-.12A.93.93,0,0,1,76.14,82.89Zm0,.68a.39.39,0,0,0-.13-.33.5.5,0,0,0-.34-.11.68.68,0,0,0-.7.6h1.15A.44.44,0,0,0,76.1,83.57Z"/><path class="cls-2" d="M79.05,83a.69.69,0,0,1,.22.5h-.42a.31.31,0,0,0-.11-.27.48.48,0,0,0-.33-.1.45.45,0,0,0-.27.07.24.24,0,0,0-.1.21.2.2,0,0,0,.06.14.38.38,0,0,0,.15.09l.25.08.34.12a.57.57,0,0,1,.22.16.46.46,0,0,1,.09.29.71.71,0,0,1,0,.14.56.56,0,0,1-.24.35,1,1,0,0,1-.53.14,1,1,0,0,1-.63-.18.59.59,0,0,1-.24-.5h.42a.31.31,0,0,0,.11.27.58.58,0,0,0,.37.11.4.4,0,0,0,.26-.08.29.29,0,0,0,.09-.21.21.21,0,0,0-.06-.16.56.56,0,0,0-.15-.1L78.28,84,78,83.85a.65.65,0,0,1-.21-.16.4.4,0,0,1-.09-.27s0-.08,0-.13a.54.54,0,0,1,.25-.36,1,1,0,0,1,.53-.14A.91.91,0,0,1,79.05,83Z"/><path class="cls-2" d="M81.79,83a.69.69,0,0,1,.22.5h-.42a.34.34,0,0,0-.11-.27.49.49,0,0,0-.34-.1.4.4,0,0,0-.26.07.24.24,0,0,0-.1.21.2.2,0,0,0,.06.14.34.34,0,0,0,.14.09l.25.08.34.12a.53.53,0,0,1,.23.16.46.46,0,0,1,.09.29s0,.09,0,.14a.54.54,0,0,1-.25.35.92.92,0,0,1-.53.14,1,1,0,0,1-.63-.18.61.61,0,0,1-.23-.5h.42a.28.28,0,0,0,.11.27.58.58,0,0,0,.37.11.4.4,0,0,0,.26-.08.29.29,0,0,0,.09-.21.21.21,0,0,0-.06-.16l-.16-.1L81,84l-.33-.11a.49.49,0,0,1-.21-.16.4.4,0,0,1-.09-.27.62.62,0,0,1,0-.13.54.54,0,0,1,.25-.36.92.92,0,0,1,.53-.14A.91.91,0,0,1,81.79,83Z"/><path class="cls-2" d="M83.47,84.77a.75.75,0,0,1-.13.45.46.46,0,0,1-.39.18l0-.17a.23.23,0,0,0,.15,0,.3.3,0,0,0,.07-.17v0H83l.07-.41h.39A.59.59,0,0,1,83.47,84.77Z"/><path class="cls-2" d="M86.85,82.58l-.14.8h1l-.06.32h-1l-.14.82h1.07l-.06.34H86l.46-2.62H88l-.06.34Z"/><path class="cls-2" d="M90.58,83a.74.74,0,0,1,.22.57h-.45a.38.38,0,0,0-.12-.3.48.48,0,0,0-.34-.11.66.66,0,0,0-.44.17.89.89,0,0,0-.26.51,1,1,0,0,0,0,.18.48.48,0,0,0,.13.37.45.45,0,0,0,.34.13.67.67,0,0,0,.37-.11.62.62,0,0,0,.24-.31h.45a1.15,1.15,0,0,1-1.12.79.88.88,0,0,1-.62-.22.85.85,0,0,1-.23-.62,2.5,2.5,0,0,1,0-.25,1.3,1.3,0,0,1,.23-.54,1.15,1.15,0,0,1,.41-.35,1.26,1.26,0,0,1,.55-.12A.92.92,0,0,1,90.58,83Z"/><path class="cls-2" d="M93.7,83a.78.78,0,0,1,.24.61,1.94,1.94,0,0,1,0,.24,1.21,1.21,0,0,1-.24.54,1.12,1.12,0,0,1-.42.36,1.3,1.3,0,0,1-.55.12,1.16,1.16,0,0,1-.47-.1.79.79,0,0,1-.31-.29.85.85,0,0,1-.11-.46,1.06,1.06,0,0,1,0-.24,1.21,1.21,0,0,1,.23-.53,1.07,1.07,0,0,1,.43-.36,1.3,1.3,0,0,1,.55-.12A.94.94,0,0,1,93.7,83Zm-1.16.31a.84.84,0,0,0-.27.51.91.91,0,0,0,0,.17.47.47,0,0,0,.14.38.53.53,0,0,0,.36.13.69.69,0,0,0,.46-.18.78.78,0,0,0,.26-.5.88.88,0,0,0,0-.17.49.49,0,0,0-.14-.38.52.52,0,0,0-.36-.13A.73.73,0,0,0,92.54,83.33Z"/><path class="cls-2" d="M96.92,83a.64.64,0,0,1,.18.49,1,1,0,0,1,0,.23l-.2,1.19h-.43l.2-1.15a.59.59,0,0,0,0-.14.41.41,0,0,0-.12-.32.43.43,0,0,0-.32-.11.59.59,0,0,0-.43.16.85.85,0,0,0-.24.47h0l-.19,1.1h-.43l.36-2h.43l-.08.45a.83.83,0,0,1,.33-.36.86.86,0,0,1,.48-.13A.66.66,0,0,1,96.92,83Z"/><path class="cls-2" d="M100.07,83a.78.78,0,0,1,.24.61,1.94,1.94,0,0,1,0,.24,1.32,1.32,0,0,1-.23.54,1.24,1.24,0,0,1-.43.36,1.26,1.26,0,0,1-.55.12,1.16,1.16,0,0,1-.47-.1.79.79,0,0,1-.31-.29,1,1,0,0,1-.11-.46,2.32,2.32,0,0,1,0-.24,1.34,1.34,0,0,1,.23-.53,1.14,1.14,0,0,1,.43-.36,1.34,1.34,0,0,1,.56-.12A.91.91,0,0,1,100.07,83Zm-1.16.31a.84.84,0,0,0-.27.51.91.91,0,0,0,0,.17.47.47,0,0,0,.14.38.53.53,0,0,0,.36.13.69.69,0,0,0,.46-.18.79.79,0,0,0,.27-.5.91.91,0,0,0,0-.17.49.49,0,0,0-.14-.38.48.48,0,0,0-.36-.13A.73.73,0,0,0,98.91,83.33Z"/><path class="cls-2" d="M104.72,83a.66.66,0,0,1,.18.49,2,2,0,0,1,0,.23l-.22,1.19h-.42l.2-1.15a.59.59,0,0,0,0-.14.4.4,0,0,0-.12-.31.41.41,0,0,0-.3-.11.57.57,0,0,0-.42.16.8.8,0,0,0-.23.45l-.19,1.1h-.43l.21-1.15a.82.82,0,0,0,0-.14.39.39,0,0,0-.11-.31.45.45,0,0,0-.31-.11.65.65,0,0,0-.42.16.87.87,0,0,0-.23.46h0l-.19,1.1h-.43l.36-2h.43l-.07.43a.78.78,0,0,1,.32-.35.84.84,0,0,1,.45-.12.63.63,0,0,1,.41.13.57.57,0,0,1,.21.36,1,1,0,0,1,.36-.36.94.94,0,0,1,.46-.13A.69.69,0,0,1,104.72,83Z"/><path class="cls-2" d="M106.74,82.82l-.37,2H106l.36-2Zm-.3-.76a.32.32,0,0,1,.23-.09.22.22,0,0,1,.17.06.18.18,0,0,1,.06.14.26.26,0,0,1-.09.21.3.3,0,0,1-.23.08.29.29,0,0,1-.17,0,.2.2,0,0,1-.06-.15A.27.27,0,0,1,106.44,82.06Z"/><path class="cls-2" d="M109.55,83a.75.75,0,0,1,.23.57h-.45a.35.35,0,0,0-.13-.3.45.45,0,0,0-.34-.11.65.65,0,0,0-.43.17.83.83,0,0,0-.26.51.9.9,0,0,0,0,.18.48.48,0,0,0,.14.37.44.44,0,0,0,.34.13.67.67,0,0,0,.37-.11.62.62,0,0,0,.24-.31h.44a1.09,1.09,0,0,1-.42.58,1.17,1.17,0,0,1-.69.21.88.88,0,0,1-.62-.22.81.81,0,0,1-.23-.62,1.14,1.14,0,0,1,0-.25,1.43,1.43,0,0,1,.22-.54,1.27,1.27,0,0,1,.42-.35,1.25,1.25,0,0,1,.54-.12A.89.89,0,0,1,109.55,83Z"/><path class="cls-2" d="M112.29,83a.69.69,0,0,1,.22.5h-.42a.34.34,0,0,0-.11-.27.49.49,0,0,0-.34-.1.4.4,0,0,0-.26.07.25.25,0,0,0,0,.35.38.38,0,0,0,.15.09l.25.08.34.12a.6.6,0,0,1,.23.16.46.46,0,0,1,.09.29.71.71,0,0,1,0,.14.54.54,0,0,1-.25.35.92.92,0,0,1-.53.14,1,1,0,0,1-.63-.18.61.61,0,0,1-.23-.5h.42a.28.28,0,0,0,.11.27.56.56,0,0,0,.37.11.4.4,0,0,0,.26-.08.29.29,0,0,0,.09-.21.21.21,0,0,0-.06-.16l-.16-.1-.25-.08-.33-.11a.56.56,0,0,1-.21-.16.4.4,0,0,1-.09-.27.62.62,0,0,1,0-.13.54.54,0,0,1,.25-.36.92.92,0,0,1,.53-.14A.91.91,0,0,1,112.29,83Z"/><path class="cls-2" d="M116.66,82.93a.57.57,0,0,1,.22.36l.09-.47h.42l-.36,2h-.43l.09-.47a.9.9,0,0,1-.34.36,1,1,0,0,1-.5.14.7.7,0,0,1-.56-.22.8.8,0,0,1-.21-.59,1.33,1.33,0,0,1,0-.28,1.6,1.6,0,0,1,.21-.54,1.18,1.18,0,0,1,.39-.35,1,1,0,0,1,.49-.12A.72.72,0,0,1,116.66,82.93Zm-.86.41a.84.84,0,0,0-.26.5.88.88,0,0,0,0,.16.51.51,0,0,0,.14.38.52.52,0,0,0,.38.13.72.72,0,0,0,.48-.18.79.79,0,0,0,.26-.49.78.78,0,0,0,0-.16.48.48,0,0,0-.52-.52A.68.68,0,0,0,115.8,83.34Z"/><path class="cls-2" d="M120.33,83a.64.64,0,0,1,.17.49.93.93,0,0,1,0,.23l-.21,1.19h-.42l.2-1.15a.59.59,0,0,0,0-.14.41.41,0,0,0-.12-.32.44.44,0,0,0-.33-.11.62.62,0,0,0-.43.16.84.84,0,0,0-.23.47h0l-.19,1.1h-.43l.36-2h.43l-.08.45a.83.83,0,0,1,.33-.36.85.85,0,0,1,.47-.13A.69.69,0,0,1,120.33,83Z"/><path class="cls-2" d="M124,82.11l-.49,2.75h-.42l.08-.47a.9.9,0,0,1-.34.36.94.94,0,0,1-.5.14.71.71,0,0,1-.55-.22.84.84,0,0,1-.21-.6c0-.07,0-.16,0-.27a1.43,1.43,0,0,1,.22-.54,1,1,0,0,1,.88-.47.74.74,0,0,1,.46.14.57.57,0,0,1,.22.36l.2-1.18Zm-1.72,1.23a.89.89,0,0,0-.26.5.86.86,0,0,0,0,.16.51.51,0,0,0,.14.38.52.52,0,0,0,.38.13.72.72,0,0,0,.48-.18.84.84,0,0,0,.26-.49c0-.07,0-.12,0-.15a.56.56,0,0,0-.14-.39.54.54,0,0,0-.38-.14A.72.72,0,0,0,122.3,83.34Z"/><path class="cls-2" d="M128.57,84.24a1.45,1.45,0,0,1-.55.46,1.74,1.74,0,0,1-.77.16h-.88l.46-2.62h.88a1.29,1.29,0,0,1,.87.27,1,1,0,0,1,.3.74,1.53,1.53,0,0,1,0,.3A1.76,1.76,0,0,1,128.57,84.24Zm-.52,0a1.14,1.14,0,0,0,.37-.69.93.93,0,0,0,0-.23.66.66,0,0,0-.21-.52.94.94,0,0,0-.62-.18h-.42l-.33,1.86h.42A1.2,1.2,0,0,0,128.05,84.24Z"/><path class="cls-2" d="M131.59,82.89a.69.69,0,0,1,.29.27.8.8,0,0,1,.09.39,1.34,1.34,0,0,1,0,.19c0,.07,0,.13-.05.18h-1.58s0,.08,0,.13a.45.45,0,0,0,.48.49.63.63,0,0,0,.38-.11.53.53,0,0,0,.23-.28h.46a1,1,0,0,1-.42.53,1.13,1.13,0,0,1-.69.21.82.82,0,0,1-.61-.22.78.78,0,0,1-.23-.6,1.06,1.06,0,0,1,0-.25,1.29,1.29,0,0,1,.23-.55,1.22,1.22,0,0,1,.42-.36,1.23,1.23,0,0,1,.55-.12A.93.93,0,0,1,131.59,82.89Zm0,.68a.37.37,0,0,0-.14-.33.47.47,0,0,0-.33-.11.72.72,0,0,0-.45.15.77.77,0,0,0-.26.45h1.16A.88.88,0,0,0,131.55,83.57Z"/><path class="cls-2" d="M133.76,84.42l.87-1.6h.45l-1.14,2h-.51l-.42-2h.45Z"/><path class="cls-2" d="M137.45,82.89a.69.69,0,0,1,.29.27.81.81,0,0,1,.1.39,1.54,1.54,0,0,1,0,.19c0,.07,0,.13,0,.18h-1.58v.13a.46.46,0,0,0,.13.37.5.5,0,0,0,.35.12.6.6,0,0,0,.37-.11.53.53,0,0,0,.23-.28h.46a1.08,1.08,0,0,1-.41.53,1.18,1.18,0,0,1-.7.21.83.83,0,0,1-.61-.22.78.78,0,0,1-.23-.6,2.11,2.11,0,0,1,0-.25,1.29,1.29,0,0,1,.23-.55,1.22,1.22,0,0,1,.42-.36,1.26,1.26,0,0,1,.55-.12A.93.93,0,0,1,137.45,82.89Zm0,.68a.39.39,0,0,0-.13-.33.5.5,0,0,0-.34-.11.68.68,0,0,0-.7.6h1.15A.44.44,0,0,0,137.41,83.57Z"/><path class="cls-2" d="M139.72,82.11l-.48,2.75h-.42l.48-2.75Z"/><path class="cls-2" d="M142.46,83a.78.78,0,0,1,.24.61,1.94,1.94,0,0,1,0,.24,1.2,1.2,0,0,1-.23.54,1.24,1.24,0,0,1-.43.36,1.26,1.26,0,0,1-.55.12,1.11,1.11,0,0,1-.46-.1.75.75,0,0,1-.32-.29,1,1,0,0,1-.11-.46,2.32,2.32,0,0,1,0-.24,1.34,1.34,0,0,1,.23-.53,1.14,1.14,0,0,1,.43-.36,1.34,1.34,0,0,1,.56-.12A.91.91,0,0,1,142.46,83Zm-1.16.31a.84.84,0,0,0-.27.51.91.91,0,0,0,0,.17.51.51,0,0,0,.14.38.53.53,0,0,0,.36.13.69.69,0,0,0,.46-.18.79.79,0,0,0,.27-.5.91.91,0,0,0,0-.17.46.46,0,0,0-.14-.38.48.48,0,0,0-.36-.13A.73.73,0,0,0,141.3,83.33Z"/><path class="cls-2" d="M145.78,83a.79.79,0,0,1,.21.58,2.46,2.46,0,0,1,0,.26,1.64,1.64,0,0,1-.22.56,1.11,1.11,0,0,1-.39.36,1,1,0,0,1-.5.13.69.69,0,0,1-.45-.14.57.57,0,0,1-.22-.36l-.25,1.45h-.43l.54-3h.42l-.08.47a.9.9,0,0,1,.34-.36.94.94,0,0,1,.5-.14A.72.72,0,0,1,145.78,83Zm-.5,1.33a.8.8,0,0,0,.25-.49.88.88,0,0,0,0-.17.5.5,0,0,0-.14-.37.52.52,0,0,0-.38-.14.68.68,0,0,0-.48.19.81.81,0,0,0-.26.49.77.77,0,0,0,0,.15.52.52,0,0,0,.14.38.51.51,0,0,0,.38.14A.72.72,0,0,0,145.28,84.33Z"/><path class="cls-2" d="M150.4,83a.66.66,0,0,1,.18.49,1,1,0,0,1,0,.23l-.21,1.19h-.42l.2-1.15a.61.61,0,0,0,0-.14.39.39,0,0,0-.11-.31.42.42,0,0,0-.31-.11.56.56,0,0,0-.41.16.8.8,0,0,0-.23.45l-.19,1.1h-.43l.21-1.15a.82.82,0,0,0,0-.14.43.43,0,0,0-.11-.31.45.45,0,0,0-.31-.11.61.61,0,0,0-.42.16.81.81,0,0,0-.23.46h0l-.19,1.1H147l.36-2h.43l-.08.43a.91.91,0,0,1,.32-.35.89.89,0,0,1,.45-.12.64.64,0,0,1,.42.13.57.57,0,0,1,.21.36,1.1,1.1,0,0,1,.35-.36,1,1,0,0,1,.47-.13A.69.69,0,0,1,150.4,83Z"/><path class="cls-2" d="M153.34,82.89a.63.63,0,0,1,.29.27.81.81,0,0,1,.1.39,1.54,1.54,0,0,1,0,.19c0,.07,0,.13-.05.18h-1.58v.13a.46.46,0,0,0,.13.37.49.49,0,0,0,.34.12.61.61,0,0,0,.38-.11.53.53,0,0,0,.23-.28h.46a1.08,1.08,0,0,1-.41.53,1.18,1.18,0,0,1-.7.21.83.83,0,0,1-.61-.22.81.81,0,0,1-.23-.6,2.11,2.11,0,0,1,0-.25,1.29,1.29,0,0,1,.23-.55,1.22,1.22,0,0,1,.42-.36,1.26,1.26,0,0,1,.55-.12A.93.93,0,0,1,153.34,82.89Zm0,.68a.39.39,0,0,0-.13-.33.5.5,0,0,0-.34-.11.72.72,0,0,0-.45.15.77.77,0,0,0-.26.45h1.16A.44.44,0,0,0,153.3,83.57Z"/><path class="cls-2" d="M156.69,83a.64.64,0,0,1,.18.49,1,1,0,0,1,0,.23l-.2,1.19h-.43l.2-1.15a.59.59,0,0,0,0-.14.41.41,0,0,0-.12-.32.42.42,0,0,0-.32-.11.6.6,0,0,0-.43.16.85.85,0,0,0-.24.47h0l-.19,1.1h-.43l.36-2h.43l-.08.45a.83.83,0,0,1,.33-.36.89.89,0,0,1,.48-.13A.64.64,0,0,1,156.69,83Z"/><path class="cls-2" d="M158.51,84.19a.43.43,0,0,0,0,.11.18.18,0,0,0,.06.15.35.35,0,0,0,.2,0h.2l-.07.37h-.26a.67.67,0,0,1-.41-.11.41.41,0,0,1-.15-.36,1.25,1.25,0,0,1,0-.21l.18-1H158l.06-.36h.3l.09-.51h.43l-.09.51h.5l-.07.36h-.5Z"/><path class="cls-2" d="M162.51,82.24l-.45,2.62h-.43l.46-2.62Z"/><path class="cls-2" d="M165.4,83a.64.64,0,0,1,.18.49,1,1,0,0,1,0,.23l-.2,1.19h-.43l.21-1.15s0-.09,0-.14a.41.41,0,0,0-.12-.32.42.42,0,0,0-.32-.11.6.6,0,0,0-.43.16.85.85,0,0,0-.24.47h0l-.19,1.1h-.43l.36-2h.43l-.08.45a.83.83,0,0,1,.33-.36.89.89,0,0,1,.48-.13A.64.64,0,0,1,165.4,83Z"/><path class="cls-2" d="M167.21,84.19s0,.07,0,.11a.18.18,0,0,0,.06.15.35.35,0,0,0,.2,0h.2l-.07.37h-.26a.67.67,0,0,1-.41-.11.41.41,0,0,1-.15-.36,1.25,1.25,0,0,1,0-.21l.18-1h-.3l.06-.36h.3l.09-.51h.43l-.09.51H168l-.06.36h-.5Z"/><path class="cls-2" d="M170.44,82.89a.59.59,0,0,1,.29.27.71.71,0,0,1,.1.39,1.54,1.54,0,0,1,0,.19.78.78,0,0,1-.05.18h-1.57a.49.49,0,0,0,0,.13.46.46,0,0,0,.13.37.51.51,0,0,0,.35.12.63.63,0,0,0,.38-.11.58.58,0,0,0,.23-.28h.45a1.08,1.08,0,0,1-.41.53,1.17,1.17,0,0,1-.69.21.86.86,0,0,1-.62-.22.81.81,0,0,1-.23-.6,1.07,1.07,0,0,1,0-.25,1.28,1.28,0,0,1,.22-.55,1.32,1.32,0,0,1,.42-.36,1.26,1.26,0,0,1,.55-.12A.88.88,0,0,1,170.44,82.89Zm0,.68a.39.39,0,0,0-.14-.33.48.48,0,0,0-.34-.11.69.69,0,0,0-.44.15.73.73,0,0,0-.26.45h1.16A.88.88,0,0,0,170.41,83.57Z"/><path class="cls-2" d="M172.72,82.11l-.48,2.75h-.43l.48-2.75Z"/><path class="cls-2" d="M174.46,82.11,174,84.86h-.42l.48-2.75Z"/><path class="cls-2" d="M176.07,82.82l-.37,2h-.42l.36-2Zm-.3-.76A.32.32,0,0,1,176,82a.24.24,0,0,1,.17.06.18.18,0,0,1,.06.14.26.26,0,0,1-.09.21.3.3,0,0,1-.23.08.29.29,0,0,1-.17,0,.2.2,0,0,1-.06-.15A.27.27,0,0,1,175.77,82.06Z"/><path class="cls-2" d="M177.26,84.67a.81.81,0,0,1-.2-.6,1.37,1.37,0,0,1,.24-.81,1.06,1.06,0,0,1,.38-.35,1.08,1.08,0,0,1,.5-.12.74.74,0,0,1,.46.13.62.62,0,0,1,.22.37l.08-.47h.42L179,84.88a1.23,1.23,0,0,1-.21.51,1,1,0,0,1-.39.35,1.19,1.19,0,0,1-.53.13,1,1,0,0,1-.66-.21.75.75,0,0,1-.25-.55h.41a.42.42,0,0,0,.16.28.53.53,0,0,0,.36.1.67.67,0,0,0,.44-.15.71.71,0,0,0,.24-.46l.09-.49a.95.95,0,0,1-.84.5A.75.75,0,0,1,177.26,84.67Zm.51-1.33a.89.89,0,0,0-.26.5s0,.11,0,.16a.51.51,0,0,0,.14.38.52.52,0,0,0,.38.13.72.72,0,0,0,.48-.18.84.84,0,0,0,.26-.49.81.81,0,0,0,0-.16.51.51,0,0,0-.14-.38.52.52,0,0,0-.38-.14A.7.7,0,0,0,177.77,83.34Z"/><path class="cls-2" d="M182,82.89a.63.63,0,0,1,.29.27.81.81,0,0,1,.1.39,1.54,1.54,0,0,1,0,.19c0,.07,0,.13,0,.18h-1.58v.13a.46.46,0,0,0,.13.37.51.51,0,0,0,.35.12.58.58,0,0,0,.37-.11.6.6,0,0,0,.24-.28h.45a1.08,1.08,0,0,1-.41.53,1.18,1.18,0,0,1-.7.21.83.83,0,0,1-.61-.22.81.81,0,0,1-.23-.6,2.11,2.11,0,0,1,0-.25,1.29,1.29,0,0,1,.23-.55,1.22,1.22,0,0,1,.42-.36,1.26,1.26,0,0,1,.55-.12A.91.91,0,0,1,182,82.89Zm0,.68a.39.39,0,0,0-.13-.33.5.5,0,0,0-.34-.11.72.72,0,0,0-.45.15.76.76,0,0,0-.25.45H182A.86.86,0,0,0,182,83.57Z"/><path class="cls-2" d="M185.36,83a.64.64,0,0,1,.18.49,2,2,0,0,1,0,.23l-.22,1.19h-.42l.2-1.15a.59.59,0,0,0,0-.14.41.41,0,0,0-.12-.32.42.42,0,0,0-.32-.11.6.6,0,0,0-.43.16.85.85,0,0,0-.24.47h0l-.19,1.1h-.43l.36-2h.43l-.08.45a.83.83,0,0,1,.33-.36.89.89,0,0,1,.48-.13A.64.64,0,0,1,185.36,83Z"/><path class="cls-2" d="M188.47,83a.71.71,0,0,1,.23.57h-.45a.38.38,0,0,0-.12-.3.48.48,0,0,0-.34-.11.67.67,0,0,0-.44.17.89.89,0,0,0-.26.51,1,1,0,0,0,0,.18.48.48,0,0,0,.13.37.45.45,0,0,0,.34.13.67.67,0,0,0,.37-.11.62.62,0,0,0,.24-.31h.45a1.1,1.1,0,0,1-.43.58,1.13,1.13,0,0,1-.69.21.88.88,0,0,1-.62-.22.85.85,0,0,1-.23-.62,2.5,2.5,0,0,1,0-.25,1.3,1.3,0,0,1,.23-.54,1.15,1.15,0,0,1,.41-.35,1.26,1.26,0,0,1,.55-.12A.88.88,0,0,1,188.47,83Z"/><path class="cls-2" d="M191.39,82.89a.69.69,0,0,1,.29.27.8.8,0,0,1,.09.39,1.34,1.34,0,0,1,0,.19c0,.07,0,.13,0,.18h-1.58v.13a.46.46,0,0,0,.13.37.47.47,0,0,0,.34.12.61.61,0,0,0,.38-.11.53.53,0,0,0,.23-.28h.46a1.08,1.08,0,0,1-.41.53,1.18,1.18,0,0,1-.7.21.82.82,0,0,1-.61-.22.78.78,0,0,1-.23-.6,1.06,1.06,0,0,1,0-.25,1.29,1.29,0,0,1,.23-.55,1.14,1.14,0,0,1,1-.48A1,1,0,0,1,191.39,82.89Zm0,.68a.42.42,0,0,0-.13-.33.52.52,0,0,0-.35-.11.71.71,0,0,0-.44.15.77.77,0,0,0-.26.45h1.16A.88.88,0,0,0,191.35,83.57Z"/><path class="cls-2" d="M51.27,38.83a3.28,3.28,0,0,0-2-.56h-.57l-.41,0a6,6,0,0,1-.67,0l-.87,0-.65,0a.39.39,0,0,0-.36.36A.28.28,0,0,0,46,39a1.41,1.41,0,0,1,.45.05s.06,0,.06.06a1.12,1.12,0,0,1,0,.44l-.69,5.59a1.47,1.47,0,0,1-.1.44s0,0-.07.06a1.36,1.36,0,0,1-.48.05.37.37,0,0,0-.35.35.27.27,0,0,0,.27.35h3.35a.37.37,0,0,0,.36-.35.27.27,0,0,0-.27-.35,2.24,2.24,0,0,1-.66-.06c-.12,0-.14-.09-.14-.1a1,1,0,0,1,0-.44l.24-2a.11.11,0,0,0,.08,0,2.8,2.8,0,0,0,.61.06A3.48,3.48,0,0,0,50,43a3.18,3.18,0,0,0,1.21-.87,2.63,2.63,0,0,0,.62-1.43A1.87,1.87,0,0,0,51.27,38.83Zm-2.89.75a1.07,1.07,0,0,1,.12-.44.41.41,0,0,1,.24,0,1,1,0,0,1,.91.41,2,2,0,0,1,.18,1.3,2.43,2.43,0,0,1-.48,1.31.91.91,0,0,1-.74.4l-.29,0-.12,0a.41.41,0,0,0-.18,0Z"/><path class="cls-2" d="M63.73,38.75a3.66,3.66,0,0,0-2.09-.58,5.57,5.57,0,0,0-2.19.47,5,5,0,0,0-1.9,1.43,4.45,4.45,0,0,0-1,2.29,4.05,4.05,0,0,0,.26,2.09A3.28,3.28,0,0,0,58.11,46a3.79,3.79,0,0,0,2.07.56A5,5,0,0,0,62.49,46a5.4,5.4,0,0,0,1.85-1.54,4.51,4.51,0,0,0,.89-2.16,4,4,0,0,0-.26-2A3.28,3.28,0,0,0,63.73,38.75Zm-1.95,6.6a2,2,0,0,1-1.09.34,1.67,1.67,0,0,1-1.17-.46,2.69,2.69,0,0,1-.74-1.32,5.44,5.44,0,0,1-.09-2,4.11,4.11,0,0,1,.81-2.14A1.89,1.89,0,0,1,61,39.06a1.86,1.86,0,0,1,1.27.43,2.41,2.41,0,0,1,.74,1.25,5.23,5.23,0,0,1,.09,1.88,5.07,5.07,0,0,1-.49,1.71A2.77,2.77,0,0,1,61.78,45.35Z"/><path class="cls-2" d="M76.18,43.68a.35.35,0,0,0-.19-.06.38.38,0,0,0-.36.24,2.41,2.41,0,0,1-.95,1.2,2.72,2.72,0,0,1-1.52.45h-.41a.82.82,0,0,1-.37,0,1.45,1.45,0,0,1,0-.36l.68-5.53a2,2,0,0,1,.1-.44s0-.06.08-.07a1.65,1.65,0,0,1,.47-.05.37.37,0,0,0,.36-.35.29.29,0,0,0-.28-.36l-.63,0-.9,0-.91,0-.62,0a.37.37,0,0,0-.35.36c0,.24.11.35.26.35a1.5,1.5,0,0,1,.46.05.12.12,0,0,1,.07.07,1.16,1.16,0,0,1,0,.43l-.68,5.59a1.5,1.5,0,0,1-.11.44.11.11,0,0,1-.07.06,1.41,1.41,0,0,1-.48.05.36.36,0,0,0-.35.35c0,.24.11.35.27.35h5.69a.51.51,0,0,0,.35-.12.5.5,0,0,0,.17-.34c.06-.52.18-1.19.35-2A.28.28,0,0,0,76.18,43.68Z"/><path class="cls-2" d="M84.56,39.14a.18.18,0,0,1,.09-.08,1.5,1.5,0,0,1,.46-.05.38.38,0,0,0,.36-.35.28.28,0,0,0-.28-.36l-.62,0-.92,0-.89,0-.65,0a.37.37,0,0,0-.35.36c0,.24.11.35.26.35a1.39,1.39,0,0,1,.46.05s.07,0,.08.07a1.51,1.51,0,0,1,0,.43l-.69,5.59a1.14,1.14,0,0,1-.1.43.1.1,0,0,1-.08.07,1.62,1.62,0,0,1-.48.05.36.36,0,0,0-.35.35c0,.24.11.35.26.35H84.2a.37.37,0,0,0,.36-.35.28.28,0,0,0-.27-.35,1.28,1.28,0,0,1-.47-.05s0,0,0,0a1.27,1.27,0,0,1,0-.45l.68-5.57A1.47,1.47,0,0,1,84.56,39.14Z"/><path class="cls-2" d="M97,43.77h-.08a.34.34,0,0,0-.31.19,4.92,4.92,0,0,1-1.17,1.39,2.06,2.06,0,0,1-1.27.39,2.17,2.17,0,0,1-1.34-.4,2.32,2.32,0,0,1-.8-1.17,4.19,4.19,0,0,1-.14-1.84,4.89,4.89,0,0,1,.57-1.8,3.14,3.14,0,0,1,1-1.14A2.55,2.55,0,0,1,94.88,39a1.81,1.81,0,0,1,1.27.45,2.69,2.69,0,0,1,.72,1.43.3.3,0,0,0,.31.19h.06a.4.4,0,0,0,.33-.36L97.62,39a.8.8,0,0,0,0-.3.44.44,0,0,0-.25-.21,4.17,4.17,0,0,0-1-.26,6.6,6.6,0,0,0-3.7.44,5.17,5.17,0,0,0-1.93,1.51,4.32,4.32,0,0,0-.92,2.2,3.65,3.65,0,0,0,.36,2.15A3.46,3.46,0,0,0,91.7,46a5.11,5.11,0,0,0,2.37.52,7.37,7.37,0,0,0,2.41-.42.56.56,0,0,0,.29-.22,1,1,0,0,0,.12-.28l.37-1.53A.3.3,0,0,0,97,43.77Z"/><path class="cls-2" d="M110.38,38.3l-.46,0-.48,0-1,0-.64,0a.39.39,0,0,0-.36.36.28.28,0,0,0,.27.35.46.46,0,0,1,.31.08.25.25,0,0,1,0,.23,1.84,1.84,0,0,1-.38.79l-1.06,1.49-1.14-2.21a.48.48,0,0,1-.08-.31s0,0,0,0a.22.22,0,0,1,.14,0,.36.36,0,0,0,.34-.35c0-.25-.11-.36-.26-.36l-.8,0-1.21,0-.37,0-.38,0a.38.38,0,0,0-.36.36.28.28,0,0,0,.28.35s.1,0,.28.2a4.11,4.11,0,0,1,.58.91l1.39,2.67-.29,2.36a1.21,1.21,0,0,1-.1.43.09.09,0,0,1-.08.07,1.62,1.62,0,0,1-.48.05.36.36,0,0,0-.35.35c0,.24.11.35.26.35h3.08a.38.38,0,0,0,.36-.35.28.28,0,0,0-.28-.35,2,2,0,0,1-.46,0,.11.11,0,0,1-.06-.06,1.94,1.94,0,0,1,0-.45l.31-2.62,1.47-2a5.43,5.43,0,0,1,1-1.09,1.48,1.48,0,0,1,.79-.4.36.36,0,0,0,.34-.35C110.68,38.41,110.54,38.3,110.38,38.3Z"/><path class="cls-2" d="M34.15,81a6.16,6.16,0,0,1-2.74-.43c-.44-.26-.64-.79-.64-1.62A11.4,11.4,0,0,1,31,76.64l5.73-32.22a12.3,12.3,0,0,1,.77-3,2.31,2.31,0,0,1,1.23-1.21,7.46,7.46,0,0,1,2.72-.38c.14,0,.59-.06.59-.81s-.45-.81-.6-.81h0l-3,.07c-1.83.09-3.46.14-4.87.14-1.13,0-2.62-.05-4.46-.14l-3.22-.07c-.14,0-.6.06-.6.81s.46.81.6.81a5.58,5.58,0,0,1,2.72.46,1.79,1.79,0,0,1,.66,1.66A10,10,0,0,1,29,44.15L23.29,76.51a11.34,11.34,0,0,1-.81,3,2.16,2.16,0,0,1-1.22,1.14,8.46,8.46,0,0,1-2.69.32c-.14,0-.6.06-.6.81s.46.81.6.81c1.38,0,2.44,0,3.22-.07l4.53-.07,4.66.07c.8,0,1.84.07,3.17.07.2,0,.53-.11.53-.81S34.35,81,34.15,81Z"/><path class="cls-2" d="M64.64,51.17a3.8,3.8,0,0,1,2.85-1.23c.12,0,.53,0,.53-.72s-.41-.72-.54-.72h0l-2.14,0c-1.14.07-2,.1-2.58.1-.8,0-1.78,0-2.93-.1l-1.75,0c-.06,0-.58,0-.58.72s.52.72.58.72a2.75,2.75,0,0,1,2.1.8,3.38,3.38,0,0,1,.75,2.35,8.25,8.25,0,0,1-.14,1.37L57.92,70.3,47.45,51.24c-.19-.35-.36-.67-.5-1s-.25-.53-.3-.61a2.94,2.94,0,0,0-.41-.84,1,1,0,0,0-.77-.32l-1.15,0c-.55,0-1.22.05-2,.05s-1.44,0-1.92-.05l-2.29,0c-.06,0-.57,0-.57.72s.51.72.57.72a2.72,2.72,0,0,1,1.64.55,6.49,6.49,0,0,1,1.58,1.95l-3.79,21A6.18,6.18,0,0,1,36,76.87a3.82,3.82,0,0,1-2.86,1.23c-.06,0-.57,0-.57.72s.51.72.57.72c.94,0,1.67,0,2.14-.05l2.59,0,2.73,0c.46,0,1.12.05,2,.05.12,0,.53-.05.53-.72s-.41-.72-.53-.72a2.64,2.64,0,0,1-2.09-.82,3.48,3.48,0,0,1-.76-2.42,7,7,0,0,1,.09-1.28L43,55.43,56.34,79.74a1,1,0,0,0,1,.53A1.74,1.74,0,0,0,58,80.1c.42-.19.52-.46.51-.58L63,54.61A6.47,6.47,0,0,1,64.64,51.17Z"/><path class="cls-2" d="M82.61,70.13A7.1,7.1,0,0,0,81,65.51a27.91,27.91,0,0,0-4.41-4.12c-1.22-1-2.14-1.73-2.73-2.27a7.77,7.77,0,0,1-1.51-1.91,4.65,4.65,0,0,1-.62-2.39,6.16,6.16,0,0,1,.45-2.23,4.87,4.87,0,0,1,1.43-2,3.6,3.6,0,0,1,2.42-.79,4.53,4.53,0,0,1,3.49,1.78,11.8,11.8,0,0,1,2.38,5.16.65.65,0,0,0,.67.44.66.66,0,0,0,.68-.43L84,50.51c.09-.31.12-.9-.79-1.35A15.5,15.5,0,0,0,77.35,48a13.2,13.2,0,0,0-7.16,2,8.81,8.81,0,0,0-4,5.83A7.61,7.61,0,0,0,66,57.29a6.26,6.26,0,0,0,.78,3.1,9.56,9.56,0,0,0,1.87,2.38c.72.65,1.7,1.45,2.93,2.39a21.5,21.5,0,0,1,3.76,3.54,5.94,5.94,0,0,1,1.24,3.75,6,6,0,0,1-1.37,4.13,4.42,4.42,0,0,1-3.51,1.52c-3.18,0-5.29-2.58-6.44-7.86a.71.71,0,0,0-.73-.59.65.65,0,0,0-.7.61L62.32,77a1.19,1.19,0,0,0,.51,1.45,17.7,17.7,0,0,0,7.57,1.68,13.31,13.31,0,0,0,8.23-2.4,9.93,9.93,0,0,0,3.88-6.24A6.81,6.81,0,0,0,82.61,70.13Z"/><path class="cls-2" d="M94,53A8,8,0,0,1,94.55,51a1.41,1.41,0,0,1,.77-.75,4.81,4.81,0,0,1,1.81-.26c.06,0,.57,0,.57-.72s-.51-.72-.58-.72h0l-2.09,0c-1.27.07-2.4.1-3.36.1-.77,0-1.8,0-3.08-.1l-2.23,0c-.06,0-.58,0-.58.72s.52.72.58.72a3.55,3.55,0,0,1,1.8.3,1.13,1.13,0,0,1,.38,1,7,7,0,0,1-.19,1.52l-4,22.36a7.83,7.83,0,0,1-.54,2.05,1.33,1.33,0,0,1-.76.7,5.3,5.3,0,0,1-1.8.22c-.06,0-.58,0-.58.72s.52.72.58.72c.94,0,1.69,0,2.23-.05l3.12,0,3.22,0c.55,0,1.29.05,2.2.05.12,0,.52-.05.52-.72s-.4-.72-.52-.72a3.82,3.82,0,0,1-1.82-.28c-.24-.14-.36-.47-.36-1a7.48,7.48,0,0,1,.19-1.57Z"/><path class="cls-2" d="M120.41,68.44a.5.5,0,0,1,.44-.16H121a.56.56,0,0,0,.42-.18.77.77,0,0,0,.18-.62c0-.66-.43-.74-.62-.74h0c-1.62.1-3.2.15-4.7.15s-3.53-.08-5.94-.24a.62.62,0,0,0-.54.32,1,1,0,0,0-.13.49.9.9,0,0,0,.13.49.62.62,0,0,0,.54.33,14,14,0,0,1,2.64.18A1.8,1.8,0,0,1,114,69a2.45,2.45,0,0,1,.32,1.43,21.37,21.37,0,0,1-.24,2.5,8,8,0,0,1-1.34,4.21,4,4,0,0,1-3.11,1.06,7.72,7.72,0,0,1-6.6-3.16c-1.61-2.13-2.43-5.11-2.43-8.86A25.43,25.43,0,0,1,101,62a16.6,16.6,0,0,1,3.73-8.79,9.08,9.08,0,0,1,7-3.16A7.13,7.13,0,0,1,116.8,52a10.92,10.92,0,0,1,2.91,5.55.73.73,0,0,0,1.37-.09l.77-6.48a2.11,2.11,0,0,0,0-.92,1.36,1.36,0,0,0-.56-.61,13.89,13.89,0,0,0-3.33-1A21.24,21.24,0,0,0,113.7,48a19.56,19.56,0,0,0-15.45,7.56,18.46,18.46,0,0,0-3.61,8.09,18.21,18.21,0,0,0-.35,3.56,13.84,13.84,0,0,0,1.6,6.71,11.36,11.36,0,0,0,4.72,4.59,15.72,15.72,0,0,0,7.44,1.64,44.75,44.75,0,0,0,10.08-1.38,1.12,1.12,0,0,0,.55-.29,1,1,0,0,0,.26-.57,8,8,0,0,0,.17-1.45c0-.66.14-1.62.33-2.86.2-1.47.37-2.64.53-3.56A4.09,4.09,0,0,1,120.41,68.44Z"/><path class="cls-2" d="M153.92,49.22c0-.66-.4-.72-.54-.72l-2.24,0c-1.26.07-2.31.1-3.11.1s-1.85,0-3.13-.1l-2.18,0c-.06,0-.58,0-.58.72s.52.72.58.72a3,3,0,0,1,1.68.31,1.33,1.33,0,0,1,.35,1.1,12.58,12.58,0,0,1-.13,1.52l-1.68,9.44H131.21l1.65-9.3a8.25,8.25,0,0,1,.54-2,1.52,1.52,0,0,1,.8-.78,4.81,4.81,0,0,1,1.81-.26c.12,0,.53,0,.53-.72s-.41-.72-.54-.72h0l-2.28,0c-1.33.07-2.4.1-3.17.1s-1.8,0-3.08-.1l-2.18,0c-.13,0-.53.06-.53.72s.4.72.53.72a3.23,3.23,0,0,1,1.78.32,1.13,1.13,0,0,1,.4,1c0,.11,0,.46-.19,1.47l-4,22.35a9,9,0,0,1-.59,2.06,1.3,1.3,0,0,1-.76.7,5.48,5.48,0,0,1-1.85.22c-.06,0-.57,0-.57.72s.51.72.57.72c.94,0,1.68,0,2.18-.05l3.08,0,3.21,0c.55,0,1.32.05,2.25.05.06,0,.58,0,.58-.72s-.52-.72-.58-.72a3.64,3.64,0,0,1-1.78-.28c-.23-.14-.35-.47-.35-1a8.21,8.21,0,0,1,.19-1.57l1.92-10.74h11.73L140.7,75.12a9.34,9.34,0,0,1-.57,2.07,1.21,1.21,0,0,1-.73.69,5.48,5.48,0,0,1-1.85.22c-.12,0-.53.05-.53.72s.41.72.53.72c1,0,1.75,0,2.28-.05l3.17,0,3.27,0c.52,0,1.19.05,2,.05.06,0,.58,0,.58-.72s-.52-.72-.58-.72a3.45,3.45,0,0,1-1.76-.29,1.23,1.23,0,0,1-.37-1.07,10.07,10.07,0,0,1,.14-1.47l4-22.34a9.41,9.41,0,0,1,.59-2,1.44,1.44,0,0,1,.77-.73,4.94,4.94,0,0,1,1.79-.24C153.51,49.94,153.92,49.89,153.92,49.22Z"/><path class="cls-2" d="M174.36,52a5.92,5.92,0,0,1,1.3,3.9,9,9,0,0,1-.13,1.44.55.55,0,0,0,.08.49.68.68,0,0,0,.54.27h.1a.67.67,0,0,0,.7-.55c.1-.8.39-2.35.89-4.62s.89-3.95,1.17-5a.57.57,0,0,0-.08-.49.64.64,0,0,0-.48-.25h-.11a.71.71,0,0,0-.63.32l0,.08a1.18,1.18,0,0,1-.75.71,6.82,6.82,0,0,1-2,.22l-3.05,0c-2,.06-3.8.1-5.43.1-3.5,0-6.47,0-8.84-.15-1,0-1.33-.21-1.41-.3a.17.17,0,0,1-.06-.15l0-.28L156,47.6a.76.76,0,0,0-.56-.28h-.11a.65.65,0,0,0-.69.47c-.22,1.13-.59,2.8-1.1,5s-.9,3.68-1.15,4.6a.54.54,0,0,0,0,.45.76.76,0,0,0,.5.31c.45.09.71-.08.81-.4a11.14,11.14,0,0,1,4.65-6.25,5.46,5.46,0,0,1,2.91-1h.58a1.81,1.81,0,0,1,1,.21,1,1,0,0,1,.21.71,11.81,11.81,0,0,1-.18,1.38l-3.91,22.35a6.39,6.39,0,0,1-.67,2,1.76,1.76,0,0,1-1.08.75,10.63,10.63,0,0,1-2.56.23c-.12,0-.53.05-.53.72s.41.72.53.72c1.19,0,2.12,0,2.75-.05l3.76,0,3.89,0c.65,0,1.55.05,2.68.05.13,0,.53-.05.53-.72s-.4-.72-.53-.72a7.69,7.69,0,0,1-2.79-.32c-.23-.11-.54-.34-.54-1.09a10,10,0,0,1,.19-1.42L168.59,53a5.45,5.45,0,0,1,.63-2.15c.18-.25.63-.39,1.32-.39h.53A4.09,4.09,0,0,1,174.36,52Z"/><path class="cls-2" d="M195,49.16A15.53,15.53,0,0,0,189.13,48,13.18,13.18,0,0,0,182,50a8.81,8.81,0,0,0-4,5.83,7.76,7.76,0,0,0-.15,1.49,6.36,6.36,0,0,0,.77,3.1,9.37,9.37,0,0,0,1.88,2.38c.71.65,1.7,1.45,2.93,2.39a22.25,22.25,0,0,1,3.76,3.54,5.93,5.93,0,0,1,1.23,3.75A6,6,0,0,1,187,76.58a4.42,4.42,0,0,1-3.51,1.52c-3.13,0-5.3-2.65-6.43-7.86a.72.72,0,0,0-.74-.59.65.65,0,0,0-.69.61L174.09,77a1.19,1.19,0,0,0,.51,1.45,17.74,17.74,0,0,0,7.58,1.68,13.26,13.26,0,0,0,8.22-2.4,9.89,9.89,0,0,0,3.88-6.24,6,6,0,0,0,.11-1.35,7.16,7.16,0,0,0-1.59-4.62,28.36,28.36,0,0,0-4.41-4.12c-1.22-1-2.13-1.72-2.74-2.27a8.27,8.27,0,0,1-1.51-1.91,4.75,4.75,0,0,1-.61-2.39,6.16,6.16,0,0,1,.45-2.23,4.75,4.75,0,0,1,1.42-2,3.62,3.62,0,0,1,2.42-.79,4.57,4.57,0,0,1,3.5,1.78,11.68,11.68,0,0,1,2.37,5.16.67.67,0,0,0,.68.44.68.68,0,0,0,.68-.43l.72-6.29C195.87,50.2,195.89,49.61,195,49.16Z"/><polygon class="cls-3" points="196.71 46.4 113.13 46.4 114.39 38.17 197.97 38.17 196.71 46.4"/></svg>