<svg xmlns="http://www.w3.org/2000/svg" xmlns:xlink="http://www.w3.org/1999/xlink" viewBox="0 0 430 430" width="430" height="430" preserveAspectRatio="xMidYMid meet" style="width: 100%; height: 100%; transform: translate3d(0px, 0px, 0px); content-visibility: visible;"><defs><clipPath id="__lottie_element_16"><rect width="430" height="430" x="0" y="0"/></clipPath><clipPath id="__lottie_element_18"><path d="M0,0 L430,0 L430,430 L0,430z"/></clipPath></defs><g clip-path="url(#__lottie_element_16)"><g clip-path="url(#__lottie_element_18)" transform="matrix(1,0,0,1,0,0)" opacity="1" style="display: block;"><g transform="matrix(0.9985666275024414,-0.053522251546382904,0.053522251546382904,0.9985666275024414,142.381103515625,333.46044921875)" opacity="1" style="display: block;"><g opacity="1" transform="matrix(1,0,0,1,2.6004345417022705,7.936020374298096)"><path stroke-linecap="round" stroke-linejoin="round" fill-opacity="0" class="secondary" stroke="rgb(255,255,255)" stroke-opacity="1" stroke-width="12" d=" M14.333000183105469,0 C14.333000183105469,-7.915999889373779 7.915999889373779,-14.333000183105469 0,-14.333000183105469 C-7.915999889373779,-14.333000183105469 -14.333000183105469,-7.915999889373779 -14.333000183105469,0 C-14.333000183105469,7.915999889373779 -7.915999889373779,14.333000183105469 0,14.333000183105469 C7.915999889373779,14.333000183105469 14.333000183105469,7.915999889373779 14.333000183105469,0z"/></g><g opacity="1" transform="matrix(1,0,0,1,0,0)"><path stroke-linecap="round" stroke-linejoin="round" fill-opacity="0" class="secondary" stroke="rgb(255,255,255)" stroke-opacity="1" stroke-width="12" d="M0 0"/></g></g><g transform="matrix(0.9985666275024414,-0.053522251546382904,0.053522251546382904,0.9985666275024414,195.61631774902344,299.0618591308594)" opacity="1" style="display: block;"><g opacity="1" transform="matrix(1,0,0,1,7.758487701416016,15.988372802734375)"><path stroke-linecap="round" stroke-linejoin="round" fill-opacity="0" class="secondary" stroke="rgb(255,255,255)" stroke-opacity="1" stroke-width="12" d=" M12.958995819091797,0 C12.958995819091797,-7.157683849334717 7.157683849334717,-12.958995819091797 0,-12.958995819091797 C-7.157683849334717,-12.958995819091797 -12.958995819091797,-7.157683849334717 -12.958995819091797,0 C-12.958995819091797,7.157683849334717 -7.157683849334717,12.958995819091797 0,12.958995819091797 C7.157683849334717,12.958995819091797 12.958995819091797,7.157683849334717 12.958995819091797,0z"/></g><g opacity="1" transform="matrix(1,0,0,1,0,0)"><path stroke-linecap="round" stroke-linejoin="round" fill-opacity="0" class="secondary" stroke="rgb(255,255,255)" stroke-opacity="1" stroke-width="12" d="M0 0"/></g></g><g transform="matrix(0.9982633590698242,0.05890869349241257,-0.05890869349241257,0.9982633590698242,-31.11187744140625,-59.8663330078125)" opacity="1" style="display: block;"><g opacity="1" transform="matrix(1,0,0,1,350.43499755859375,345.3009948730469)"><path stroke-linecap="round" stroke-linejoin="round" fill-opacity="0" class="secondary" stroke="rgb(255,255,255)" stroke-opacity="1" stroke-width="12" d=" M-25.18238639831543,-5.031015396118164 C-9.834818840026855,-12.236599922180176 11.90369701385498,-10.134712219238281 25.857803344726562,-12.813257217407227"/></g><g opacity="1" transform="matrix(1,0,0,1,350.43499755859375,295.9159851074219)"><path stroke-linecap="round" stroke-linejoin="round" fill-opacity="0" class="primary" stroke="rgb(255,255,255)" stroke-opacity="1" stroke-width="12" d=" M38.891998291015625,-112.63200378417969 C38.891998291015625,-112.63200378417969 35.540000915527344,-112.63200378417969 35.540000915527344,-112.63200378417969 C30.597999572753906,-112.63200378417969 26.591999053955078,-108.62699890136719 26.591999053955078,-103.68499755859375 C26.591999053955078,-103.68499755859375 26.589000701904297,86.0469970703125 26.589000701904297,86.0469970703125 C26.589000701904297,100.7300033569336 14.687000274658203,112.63200378417969 0.004000000189989805,112.63200378417969 C0.004000000189989805,112.63200378417969 0.004000000189989805,112.63200378417969 0.004000000189989805,112.63200378417969 C-14.678000450134277,112.63200378417969 -26.58099937438965,100.7300033569336 -26.58099937438965,86.0479965209961 C-26.58099937438965,86.0479965209961 -26.582000732421875,-103.68399810791016 -26.582000732421875,-103.68399810791016 C-26.582000732421875,-108.6259994506836 -30.58799934387207,-112.63200378417969 -35.529998779296875,-112.63200378417969 C-35.529998779296875,-112.63200378417969 -38.891998291015625,-112.63200378417969 -38.891998291015625,-112.63200378417969"/></g></g><g transform="matrix(0.9985666275024414,-0.053522251546382904,0.053522251546382904,0.9985666275024414,-40.18510437011719,-28.530029296875)" opacity="1" style="display: block;"><g opacity="1" transform="matrix(1,0,0,1,196.60000610351562,294.8429870605469)"><path stroke-linecap="round" stroke-linejoin="round" fill-opacity="0" class="secondary" stroke="rgb(255,255,255)" stroke-opacity="1" stroke-width="12" d=" M58.51353454589844,33.450801849365234 C31.220321655273438,4.013007164001465 -22.3170108795166,5.453821659088135 -33.94982147216797,-16.59536361694336"/></g><g opacity="1" transform="matrix(1,0,0,1,196.61199951171875,296.8080139160156)"><path stroke-linecap="round" stroke-linejoin="round" fill-opacity="0" class="primary" stroke="rgb(255,255,255)" stroke-opacity="1" stroke-width="12" d=" M24.768999099731445,-112.96900177001953 C24.768999099731445,-112.96900177001953 24.768999099731445,-39.75400161743164 24.768999099731445,-39.75400161743164 C24.768999099731445,-39.75400161743164 83.51599884033203,77.32599639892578 83.51599884033203,77.32599639892578 C91.73799896240234,93.69300079345703 79.84100341796875,112.96900177001953 61.513999938964844,112.96900177001953 C61.513999938964844,112.96900177001953 -61.52199935913086,112.96900177001953 -61.52199935913086,112.96900177001953 C-79.83399963378906,112.96900177001953 -91.73100280761719,93.69300079345703 -83.52400207519531,77.32599639892578 C-83.52400207519531,77.32599639892578 -24.777000427246094,-39.75400161743164 -24.777000427246094,-39.75400161743164 C-24.777000427246094,-39.75400161743164 -24.777000427246094,-112.96900177001953 -24.777000427246094,-112.96900177001953"/></g></g><g transform="matrix(1,0,0,1,127.93000030517578,99.24300384521484)" opacity="1" style="display: none;"><g opacity="0" transform="matrix(1,0,0,1,0,0)"><path stroke-linecap="round" stroke-linejoin="round" fill-opacity="0" class="secondary" stroke="rgb(255,255,255)" stroke-opacity="1" stroke-width="12" d=" M33.742000579833984,0 C33.742000579833984,-18.635000228881836 18.635000228881836,-33.742000579833984 0,-33.742000579833984 C-18.635000228881836,-33.742000579833984 -33.742000579833984,-18.635000228881836 -33.742000579833984,0 C-33.742000579833984,18.635000228881836 -18.635000228881836,33.742000579833984 0,33.742000579833984 C18.635000228881836,33.742000579833984 33.742000579833984,18.635000228881836 33.742000579833984,0z"/></g><g opacity="1" transform="matrix(1,0,0,1,0,0)"><path stroke-linecap="round" stroke-linejoin="round" fill-opacity="0" class="secondary" stroke="rgb(255,255,255)" stroke-opacity="1" stroke-width="12" d="M0 0"/></g></g><g transform="matrix(0.9992677569389343,0.038261402398347855,-0.038261402398347855,0.9992677569389343,112.00227355957031,290.6059265136719)" opacity="1" style="display: none;"><g opacity="0" transform="matrix(1,0,0,1,0,0)"><path stroke-linecap="round" stroke-linejoin="round" fill-opacity="0" class="secondary" stroke="rgb(255,255,255)" stroke-opacity="1" stroke-width="12" d=" M33.742000579833984,0 C33.742000579833984,-18.635000228881836 18.635000228881836,-33.742000579833984 0,-33.742000579833984 C-18.635000228881836,-33.742000579833984 -33.742000579833984,-18.635000228881836 -33.742000579833984,0 C-33.742000579833984,18.635000228881836 -18.635000228881836,33.742000579833984 0,33.742000579833984 C18.635000228881836,33.742000579833984 33.742000579833984,18.635000228881836 33.742000579833984,0z"/></g><g opacity="1" transform="matrix(1,0,0,1,0,0)"><path stroke-linecap="round" stroke-linejoin="round" fill-opacity="0" class="secondary" stroke="rgb(255,255,255)" stroke-opacity="1" stroke-width="12" d="M0 0"/></g></g><g transform="matrix(0.9980713129043579,-0.06207774579524994,0.06207774579524994,0.9980713129043579,171.6285858154297,257.9291687011719)" opacity="1" style="display: none;"><g opacity="0" transform="matrix(1,0,0,1,0,0)"><path stroke-linecap="round" stroke-linejoin="round" fill-opacity="0" class="secondary" stroke="rgb(255,255,255)" stroke-opacity="1" stroke-width="12" d=" M33.742000579833984,0 C33.742000579833984,-18.635000228881836 18.635000228881836,-33.742000579833984 0,-33.742000579833984 C-18.635000228881836,-33.742000579833984 -33.742000579833984,-18.635000228881836 -33.742000579833984,0 C-33.742000579833984,18.635000228881836 -18.635000228881836,33.742000579833984 0,33.742000579833984 C18.635000228881836,33.742000579833984 33.742000579833984,18.635000228881836 33.742000579833984,0z"/></g><g opacity="1" transform="matrix(1,0,0,1,0,0)"><path stroke-linecap="round" stroke-linejoin="round" fill-opacity="0" class="secondary" stroke="rgb(255,255,255)" stroke-opacity="1" stroke-width="12" d="M0 0"/></g></g><g transform="matrix(1,0,0,1,215.92999267578125,61.74299621582031)" opacity="1" style="display: none;"><g opacity="0" transform="matrix(1,0,0,1,0,0)"><path stroke-linecap="round" stroke-linejoin="round" fill-opacity="0" class="secondary" stroke="rgb(255,255,255)" stroke-opacity="1" stroke-width="12" d=" M43.79800033569336,0.11100000143051147 C43.79800033569336,-24.152000427246094 24.128999710083008,-43.82099914550781 -0.1340000033378601,-43.82099914550781 C-24.39699935913086,-43.82099914550781 -44.06700134277344,-24.152000427246094 -44.06700134277344,0.11100000143051147 C-44.06700134277344,24.374000549316406 -24.39699935913086,44.042999267578125 -0.1340000033378601,44.042999267578125 C24.128999710083008,44.042999267578125 43.79800033569336,24.374000549316406 43.79800033569336,0.11100000143051147z"/></g><g opacity="1" transform="matrix(1,0,0,1,0,0)"><path stroke-linecap="round" stroke-linejoin="round" fill-opacity="0" class="secondary" stroke="rgb(255,255,255)" stroke-opacity="1" stroke-width="12" d="M0 0"/></g></g><g transform="matrix(1,0,0,1,127.93000030517578,99.24300384521484)" opacity="1" style="display: block;"><g opacity="1" transform="matrix(1,0,0,1,0,0.0940498560667038)"><path stroke-linecap="round" stroke-linejoin="round" fill-opacity="0" class="secondary" stroke="rgb(255,255,255)" stroke-opacity="1" stroke-width="12" d=" M14.333000183105469,0 C14.333000183105469,-7.915999889373779 7.915999889373779,-14.333000183105469 0,-14.333000183105469 C-7.915999889373779,-14.333000183105469 -14.333000183105469,-7.915999889373779 -14.333000183105469,0 C-14.333000183105469,7.915999889373779 -7.915999889373779,14.333000183105469 0,14.333000183105469 C7.915999889373779,14.333000183105469 14.333000183105469,7.915999889373779 14.333000183105469,0z"/></g><g opacity="1" transform="matrix(1,0,0,1,0,0)"><path stroke-linecap="round" stroke-linejoin="round" fill-opacity="0" class="secondary" stroke="rgb(255,255,255)" stroke-opacity="1" stroke-width="12" d="M0 0"/></g></g><g transform="matrix(1,0,0,1,215.92999267578125,61.74299621582031)" opacity="1" style="display: block;"><g opacity="1" transform="matrix(1,0,0,1,0,2.4232327938079834)"><path stroke-linecap="round" stroke-linejoin="round" fill-opacity="0" class="secondary" stroke="rgb(255,255,255)" stroke-opacity="1" stroke-width="12" d=" M27.476999282836914,0 C27.476999282836914,-15.175000190734863 15.175000190734863,-27.476999282836914 0,-27.476999282836914 C-15.175000190734863,-27.476999282836914 -27.476999282836914,-15.175000190734863 -27.476999282836914,0 C-27.476999282836914,15.175000190734863 -15.175000190734863,27.476999282836914 0,27.476999282836914 C15.175000190734863,27.476999282836914 27.476999282836914,15.175000190734863 27.476999282836914,0z"/></g><g opacity="1" transform="matrix(1,0,0,1,0,0)"><path stroke-linecap="round" stroke-linejoin="round" fill-opacity="0" class="secondary" stroke="rgb(255,255,255)" stroke-opacity="1" stroke-width="12" d="M0 0"/></g></g></g></g></svg>