<svg xmlns="http://www.w3.org/2000/svg" viewBox="0 0 644.11 168.42"><defs><style>.cls-1{fill:#004da0;}</style></defs><title>资源 2</title><g id="图层_2" data-name="图层 2"><g id="图层_1-2" data-name="图层 1"><path class="cls-1" d="M30.55,35.22,34,34.27a25.3,25.3,0,0,0,6,18l-3.13.95c-7.36-7.65-6.28-18-6.28-18m20.31-6.16L54,30.8a25.18,25.18,0,0,0-8.49,17l-2.91-1.54c.2-10.6,8.31-17.16,8.31-17.16M69.58,39l.94,3.42a25.25,25.25,0,0,0-18,6l-.95-3.15C59.2,38,69.58,39,69.58,39m6.14,20.3L74,62.43A25.26,25.26,0,0,0,57,54L58.57,51c10.61.2,17.15,8.31,17.15,8.31M65.74,78,62.33,79a25.17,25.17,0,0,0-6-18l3.15-1c7.37,7.63,6.26,18,6.26,18M45.46,84.22l-3.1-1.73a25.34,25.34,0,0,0,8.5-17L53.75,67c-.2,10.62-8.29,17.18-8.29,17.18m-18.74-10-.94-3.42a25.27,25.27,0,0,0,18-6L44.73,68c-7.61,7.37-18,6.29-18,6.29M20.58,53.93l1.72-3.08a25.32,25.32,0,0,0,17,8.49l-1.53,2.89c-10.61-.2-17.16-8.3-17.16-8.3M0,84.22a84.21,84.21,0,0,0,84.21,84.2V0A84.22,84.22,0,0,0,0,84.22"/><path class="cls-1" d="M116.22,162.12c2-.83,4-1.73,5.89-2.71V9c-1.93-1-3.9-1.87-5.89-2.7Z"/><path class="cls-1" d="M141.48,145.93c1.46-1.33,2.85-2.74,4.2-4.18V26.7c-1.35-1.44-2.74-2.85-4.2-4.2Z"/><path class="cls-1" d="M156.64,127.18c1.2-2,2.32-4.13,3.37-6.26V47.5c-1-2.13-2.17-4.22-3.37-6.25Z"/><path class="cls-1" d="M128,156.13c1.73-1,3.41-2.16,5.06-3.33V15.63c-1.65-1.16-3.33-2.28-5.06-3.34Z"/><path class="cls-1" d="M102.73,166.35a75.82,75.82,0,0,0,8.42-2.35V4.41a85.62,85.62,0,0,0-8.42-2.35Z"/><path class="cls-1" d="M87.58,168.37a89.27,89.27,0,0,0,10.94-1.16V1.23A85.52,85.52,0,0,0,87.58.07Z"/><path class="cls-1" d="M621.88,28.62c-6.72,0-11.93-5.25-11.93-12.38s5.21-12.33,11.93-12.33,11.86,5.29,11.86,12.33-5.23,12.38-11.86,12.38m0-27.2A14.71,14.71,0,0,0,607,16.24a14.84,14.84,0,1,0,29.67,0A14.69,14.69,0,0,0,621.88,1.42"/><path class="cls-1" d="M618.78,15.21V9.9h3.49c1.77,0,3.67.39,3.67,2.52,0,2.62-1.93,2.79-4.08,2.79Zm9.85-2.65c0-3.36-2-4.87-6-4.87h-6.43V24.84h2.55V17.41h2.94l4.45,7.43h2.89l-4.79-7.54c2.47-.32,4.36-1.65,4.36-4.74"/><polygon class="cls-1" points="223.99 168.42 223.99 45.06 180.19 45.06 180.19 20 297.88 20 297.88 45.06 254.08 45.06 254.08 168.42 223.99 168.42"/><rect class="cls-1" x="316.42" y="20" width="30.12" height="148.43"/><path class="cls-1" d="M462.23,113.25,490.31,122q-6.48,23.58-21.53,35t-38.2,11.44q-28.62,0-47.06-19.52T365.1,95.48q0-35.85,18.52-55.66T432.39,20q26.4,0,42.87,15.52c6.55,6.15,11.46,14.93,14.71,26.41L461.26,68.7a30.18,30.18,0,0,0-10.68-17.46q-8.13-6.41-19.75-6.41-16.06,0-26.05,11.45t-10,37.05q0,27.17,9.84,38.71t25.62,11.54a29.38,29.38,0,0,0,20-7.31q8.36-7.31,12-23"/><path class="cls-1" d="M589.46,109.58,568.71,54.76l-20.08,54.82Zm54.65,58.84H611.73L599,134.67h-59.5l-12.35,33.75h-31.8L553.22,20h31.49Z"/></g></g></svg>